<?xml version="1.0" standalone="no"?>
<!DOCTYPE svg PUBLIC "-//W3C//DTD SVG 20010904//EN"
 "http://www.w3.org/TR/2001/REC-SVG-20010904/DTD/svg10.dtd">
<svg version="1.0" xmlns="http://www.w3.org/2000/svg"
 width="250.000000pt" height="175.000000pt" viewBox="0 0 250.000000 175.000000"
 preserveAspectRatio="xMidYMid meet">
<metadata>
Created by potrace 1.16, written by Peter Selinger 2001-2019
</metadata>
<g transform="translate(0.000000,175.000000) scale(0.100000,-0.100000)"
fill="#000000" stroke="none">
<path d="M0 875 l0 -875 1250 0 1250 0 0 875 0 875 -1250 0 -1250 0 0 -875z
m190 145 c6 0 26 6 44 14 35 14 38 23 62 145 9 43 51 156 87 232 19 41 43 95
52 122 l18 47 31 -20 c17 -12 43 -26 59 -32 25 -9 32 -23 28 -55 -1 -7 4 -13
11 -13 8 -1 5 -6 -6 -15 -11 -8 -16 -15 -10 -15 5 0 1 -5 -9 -11 -9 -6 -15
-14 -12 -20 4 -5 -4 -9 -17 -9 -21 -1 -21 -2 -5 -11 9 -6 15 -15 12 -20 -4 -5
-10 -7 -14 -5 -4 3 -13 -12 -21 -32 -13 -37 -12 -49 3 -44 5 1 5 -3 2 -9 -4
-6 -15 -9 -24 -6 -11 3 -17 -2 -18 -14 -1 -11 3 -19 8 -19 6 0 7 5 3 12 -5 7
-3 8 6 3 10 -6 10 -11 -3 -20 -10 -7 -17 -24 -17 -39 0 -14 -6 -26 -12 -26 -7
0 -5 -5 5 -11 9 -6 15 -15 12 -20 -4 -5 -11 -6 -17 -3 -6 4 -8 2 -5 -3 9 -15
-19 -36 -35 -27 -10 6 -9 3 1 -9 12 -15 27 -17 105 -12 50 2 115 8 144 11 l52
7 0 58 c0 32 4 60 9 64 5 3 12 19 16 35 4 16 17 38 30 49 14 10 22 21 19 24
-3 3 16 20 41 37 35 24 61 34 104 37 52 4 58 3 82 -24 31 -33 52 -106 36 -122
-6 -6 -11 -21 -12 -33 -1 -16 -7 -22 -20 -20 -16 3 -17 2 -6 -12 11 -13 11
-16 -2 -16 -9 0 -22 -7 -31 -15 -22 -22 -66 -38 -111 -40 -23 -1 -40 -7 -39
-13 1 -7 2 -19 3 -27 1 -18 41 -21 41 -3 0 9 3 9 11 1 8 -8 24 -7 58 5 25 8
48 19 51 23 3 5 22 15 43 24 26 10 37 22 37 36 0 11 4 17 10 14 5 -3 7 0 4 9
-9 24 44 102 98 146 60 47 107 59 152 37 29 -13 33 -13 42 0 13 21 48 9 69
-24 14 -21 15 -27 4 -34 -8 -5 -10 -9 -6 -9 5 0 0 -11 -11 -25 -11 -14 -30
-69 -42 -123 -33 -150 -32 -147 -65 -148 -56 -1 -70 9 -68 52 1 21 -1 30 -4
19 -9 -31 -33 -63 -51 -67 -10 -3 -39 1 -65 9 -38 11 -51 20 -61 45 -8 18 -16
26 -20 19 -4 -6 -14 -11 -22 -11 -8 0 -27 -11 -42 -25 -15 -14 -44 -31 -64
-37 -21 -6 -38 -14 -38 -18 0 -4 -28 -6 -62 -5 -56 3 -66 7 -90 34 -26 29 -57
44 -43 21 3 -5 1 -10 -6 -10 -7 0 -9 -8 -6 -21 5 -17 3 -18 -11 -7 -13 11 -15
11 -9 -4 5 -13 0 -16 -24 -16 -16 1 -29 4 -29 8 0 6 -136 6 -150 0 -3 -1 -9
-2 -14 -1 -16 3 -66 -10 -65 -17 3 -19 -3 -23 -16 -12 -9 7 -18 10 -22 6 -3
-3 -1 -6 5 -6 7 0 12 -5 12 -11 0 -6 -6 -9 -14 -6 -8 3 -16 1 -18 -5 -3 -7
-10 -8 -17 -3 -7 4 -30 9 -51 10 -21 2 -47 8 -59 14 l-21 12 -3 -433 c-1 -238
-2 -87 -2 337 0 424 1 629 2 458 2 -204 7 -313 13 -313z m1758 371 c6 -9 10
-27 7 -41 -3 -14 -8 -47 -12 -75 l-6 -50 35 35 c19 19 35 37 34 40 -2 15 41
70 63 82 14 7 29 16 32 21 3 4 17 -1 31 -12 14 -11 28 -18 31 -15 3 3 11 -4
17 -16 15 -27 7 -112 -15 -164 -9 -21 -14 -41 -11 -44 3 -3 1 -11 -4 -18 -6
-6 -12 -38 -13 -71 l-3 -58 -39 2 c-21 2 -43 7 -48 12 -15 15 -25 90 -17 127
11 47 -3 51 -31 9 -13 -19 -28 -35 -32 -35 -5 0 -6 -4 -2 -9 3 -6 -4 -15 -15
-21 -11 -6 -18 -15 -14 -21 9 -16 -50 -70 -72 -65 -58 12 -64 18 -64 55 0 20
7 68 15 106 9 39 18 81 20 95 9 49 11 55 17 66 4 6 9 23 12 38 10 56 51 69 84
27z m-367 -10 c22 -18 22 -21 11 -70 -7 -29 -12 -59 -12 -67 0 -16 43 31 74
79 10 16 20 26 23 23 6 -6 43 32 43 43 0 14 51 10 56 -3 3 -8 11 -12 19 -10
15 6 39 -54 27 -70 -4 -6 -9 -24 -11 -41 -2 -16 -6 -32 -10 -35 -3 -3 -6 -11
-7 -17 -1 -7 -2 -20 -2 -28 -3 -29 -82 -8 -82 22 0 6 -9 13 -21 16 -16 4 -18
3 -9 -8 8 -10 6 -16 -8 -27 -10 -7 -29 -29 -43 -48 -13 -19 -34 -44 -46 -55
-13 -11 -23 -26 -23 -33 0 -7 -4 -12 -9 -12 -5 0 -11 -9 -14 -20 -7 -29 -31
-34 -71 -15 l-35 17 5 81 c3 45 9 84 13 87 4 3 6 12 6 20 -1 8 3 21 8 28 6 8
6 12 -1 12 -7 0 -6 10 3 27 8 15 11 31 8 36 -3 6 -1 7 4 4 6 -4 13 0 16 7 3 8
1 16 -5 18 -7 3 -5 14 7 31 21 32 53 35 86 8z m-17 -464 c11 -8 17 -23 14 -38
-2 -20 -9 -25 -39 -27 -23 -2 -40 2 -49 13 -11 14 -19 -1 -52 -107 -22 -68
-43 -127 -47 -131 -5 -5 -26 -7 -47 -5 -35 3 -39 6 -59 55 -11 28 -23 55 -27
58 -3 4 -14 -20 -25 -52 l-18 -58 -50 0 -49 0 -22 75 c-12 41 -27 98 -34 125
-7 28 -14 58 -17 68 -5 15 2 17 45 17 l51 0 16 -52 c8 -28 15 -61 16 -72 0
-12 12 12 26 52 l25 73 35 -3 c32 -3 37 -7 57 -55 11 -29 24 -53 27 -53 3 0
13 25 23 55 l17 55 54 0 c30 0 57 5 60 10 9 14 48 12 69 -3z m164 -9 c7 -7 12
-22 12 -35 0 -16 6 -23 20 -23 16 0 20 -7 20 -36 0 -27 -5 -37 -20 -41 -18 -5
-20 -14 -20 -79 l0 -74 -45 0 -45 0 0 71 c0 62 -2 71 -20 76 -15 4 -20 14 -20
38 0 25 5 35 20 40 14 4 20 15 20 35 0 16 6 31 13 33 22 10 53 7 65 -5z m170
-29 c3 -37 3 -37 42 -32 50 7 94 -11 109 -43 6 -14 11 -61 11 -104 l0 -80 -50
0 -50 0 0 74 c0 54 -4 75 -14 79 -25 10 -48 -29 -53 -92 l-6 -61 -43 0 -44 0
0 143 c0 79 3 147 7 151 4 4 25 6 48 4 38 -3 40 -5 43 -39z m-314 -139 c4 -55
5 -104 1 -110 -3 -5 -26 -10 -49 -10 l-43 0 -7 93 c-9 118 -5 127 49 127 l42
0 7 -100z m-557 -240 c79 -36 82 -107 5 -145 l-42 -21 48 -34 c26 -19 51 -33
55 -32 5 1 6 -2 2 -8 -3 -5 1 -13 9 -16 23 -9 19 -31 -6 -38 -17 -4 -32 3 -58
28 -29 27 -102 76 -115 76 -2 0 -3 -21 -2 -47 2 -36 -2 -48 -14 -51 -29 -6
-44 45 -43 142 1 52 -3 94 -8 97 -22 14 19 43 76 55 10 2 21 6 24 9 9 9 25 5
69 -15z m462 7 c8 -10 2 -26 -26 -65 -20 -29 -41 -52 -47 -52 -6 0 -16 -8 -23
-19 -10 -16 -5 -21 49 -47 34 -16 74 -38 89 -50 l29 -21 -21 -19 c-16 -14 -24
-16 -37 -6 -9 6 -47 29 -83 50 l-66 39 4 -41 c5 -37 2 -44 -20 -59 -23 -15
-27 -15 -41 -1 -9 8 -16 23 -16 32 -1 9 -7 69 -15 132 -7 63 -10 119 -6 123 5
4 20 5 34 2 20 -5 29 -17 37 -44 5 -20 10 -42 10 -50 0 -19 40 18 76 70 27 40
53 49 73 26z m-1095 -3 c9 -3 16 -17 16 -29 0 -22 -3 -23 -52 -19 -30 3 -60 0
-68 -6 -13 -9 -12 -13 7 -29 12 -10 40 -21 62 -25 50 -8 84 -46 75 -85 -3 -14
-21 -41 -40 -58 -28 -27 -42 -33 -78 -33 -75 0 -127 65 -69 87 11 4 21 -1 31
-15 8 -12 23 -22 34 -22 23 0 72 46 63 60 -3 5 -29 16 -57 25 -65 19 -88 40
-88 79 0 30 16 48 60 68 19 9 84 10 104 2z m134 -10 c21 -14 22 -22 17 -72 -6
-60 -14 -124 -20 -157 -2 -11 -4 -26 -4 -32 -1 -8 -14 -13 -31 -13 -29 0 -30
2 -30 43 1 31 23 218 29 245 2 6 19 0 39 -14z m680 0 c25 -18 28 -46 12 -157
-17 -118 -17 -117 -50 -117 -27 0 -30 3 -30 33 0 17 7 79 15 137 8 58 15 108
15 113 0 11 14 8 38 -9z m-433 -30 c40 -26 66 -93 54 -137 -23 -83 -105 -127
-184 -97 -80 30 -97 129 -38 214 41 59 99 65 168 20z m1639 -200 c12 -32 5
-44 -46 -79 -61 -41 -68 -42 -68 -15 0 23 -4 24 -31 10 -10 -6 -19 -19 -19
-29 0 -26 -23 -42 -131 -90 -105 -47 -128 -47 -156 -5 -12 19 -13 30 -5 48 8
18 32 29 124 54 62 17 128 34 146 38 18 3 31 9 27 12 -7 7 113 70 136 71 9 1
20 -6 23 -15z"/>
<path d="M669 439 c-19 -11 -39 -108 -29 -135 5 -13 21 -25 39 -29 51 -11 69
1 86 57 13 46 13 54 0 75 -9 13 -17 23 -18 23 -1 0 -16 4 -33 9 -17 5 -37 5
-45 0z"/>
</g>
</svg>
