<svg xmlns="http://www.w3.org/2000/svg" xmlns:v="https://svgstorm.com"
viewBox = "0 0 250 175"
width="250"
height="175">
<g fill="None" fill-opacity="0.0" stroke="#303030" stroke-opacity="1.00" stroke-width="0.3"><path d="
M 0.00 175.00 
L 250.00 175.00
L 250.00 0.00
L 0.00 0.00
L 0.00 175.00
M 233.00 133.00 
C 237.73 133.38 243.11 132.85 247.00 135.00
C 241.81 137.14 235.71 138.36 231.00 141.00
C 231.34 141.01 231.78 141.70 232.00 142.00
C 233.51 144.05 232.15 147.21 234.00 149.00
C 237.94 146.89 242.08 147.00 241.99 152.01 C 241.91 157.02 233.38 155.28 233.00 159.00
C 233.97 159.59 233.00 160.46 235.00 161.00
C 238.11 161.84 242.70 159.58 245.00 162.00
C 241.62 163.32 237.73 163.00 234.00 163.00
C 233.76 163.25 233.25 163.92 233.00 164.00
C 233.49 164.05 234.00 164.00 234.00 164.00
C 235.91 164.40 236.97 165.80 237.00 168.00
C 235.17 167.09 232.26 167.66 231.00 166.00
C 230.51 166.08 229.47 166.11 229.00 166.00
C 226.65 165.46 224.62 164.82 222.00 165.00
C 219.08 165.21 215.59 166.72 213.00 168.00
C 210.36 169.31 208.13 171.24 205.00 172.00
C 201.17 172.93 194.50 171.94 195.00 166.00
C 191.26 166.75 188.26 165.07 185.00 164.00
C 183.36 163.90 179.42 166.15 177.00 165.00
C 176.01 163.67 175.95 161.43 174.00 161.00
C 173.65 161.11 172.91 161.76 173.00 162.00
C 173.37 163.01 174.31 163.76 174.00 165.00
C 121.67 165.00 69.33 165.00 17.00 165.00
C 12.70 161.99 17.25 149.70 16.00 144.00 C 14.75 138.30 16.49 128.67 16.00 122.00 C 15.51 115.33 16.14 105.99 16.00 99.00 C 15.86 92.01 15.83 84.00 16.00 77.00 C 16.17 70.00 15.46 60.68 16.00 54.00 C 16.54 47.32 14.65 37.72 16.00 32.00 C 17.35 26.28 12.62 13.06 17.00 10.00
C 21.78 6.66 31.85 11.44 38.00 10.00 C 44.15 8.56 53.30 10.68 60.00 10.00 C 66.70 9.32 74.00 10.29 81.00 10.00 C 88.00 9.71 95.86 10.13 103.00 10.00 C 110.14 9.87 117.83 10.06 125.00 10.00 C 132.17 9.94 138.82 10.03 146.00 10.00 C 153.18 9.97 160.81 10.01 168.00 10.00 C 175.19 9.99 181.78 10.01 189.00 10.00 C 196.22 9.99 203.72 10.00 211.00 10.00 C 218.28 10.00 225.71 10.00 233.00 10.00
C 233.00 51.00 233.00 92.00 233.00 133.00 Z"/>
</g>
<g fill="None" fill-opacity="0.0" stroke="#565656" stroke-opacity="1.00" stroke-width="0.3"><path d="
M 17.00 165.00 
C 17.00 135.67 17.00 106.33 17.00 77.00
C 17.00 76.00 17.00 75.00 17.00 74.00
C 17.00 52.67 17.00 31.33 17.00 10.00
C 12.62 13.06 17.35 26.28 16.00 32.00 C 14.65 37.72 16.54 47.32 16.00 54.00 C 15.46 60.68 16.17 70.00 16.00 77.00 C 15.83 84.00 15.86 92.01 16.00 99.00 C 16.14 105.99 15.51 115.33 16.00 122.00 C 16.49 128.67 14.75 138.30 16.00 144.00 C 17.25 149.70 12.70 161.99 17.00 165.00 Z"/>
</g>
<g fill="None" fill-opacity="0.0" stroke="#797979" stroke-opacity="1.00" stroke-width="0.3"><path d="
M 17.00 74.00 
C 18.40 72.03 24.84 72.45 27.00 72.00
C 29.23 50.86 39.51 36.19 45.00 18.00
C 49.12 18.50 51.76 22.68 56.00 23.00
C 55.90 25.78 55.51 28.56 58.00 30.00
C 54.04 29.59 54.92 37.21 51.00 35.00
C 51.10 39.22 49.38 43.19 45.00 45.00
C 49.01 49.01 40.08 55.24 46.00 58.00
C 42.27 60.17 38.54 63.38 36.00 67.00
C 37.03 68.50 40.56 66.24 40.00 70.00
C 44.62 67.19 53.84 67.94 60.00 68.00
C 60.53 67.93 70.90 66.21 71.00 66.00
C 69.15 55.71 74.93 50.43 78.80 43.75 C 82.67 37.08 91.86 35.62 99.00 36.00
C 99.07 38.10 102.01 39.70 104.00 40.00
C 101.42 43.24 106.59 46.38 103.89 48.89 C 101.18 51.41 98.80 54.07 101.00 58.00
C 93.52 57.88 96.31 61.82 88.25 62.39 C 80.19 62.97 81.51 71.91 90.07 69.07 C 98.64 66.24 98.75 64.14 107.00 63.00
C 107.19 58.07 109.80 51.09 113.70 47.70 C 117.60 44.31 121.99 36.47 128.07 37.07 C 134.16 37.68 140.21 38.65 145.00 41.00
C 140.51 51.56 137.42 62.64 135.00 74.00
C 131.92 73.89 130.02 73.26 127.00 74.00
C 125.41 72.03 126.20 69.34 126.00 67.00
C 126.52 66.42 124.53 67.30 124.00 68.00
C 118.16 75.77 108.80 74.59 107.00 64.00
C 103.34 68.73 92.42 72.55 88.00 77.00
C 82.91 74.48 75.87 77.99 73.00 71.00
C 71.74 70.28 70.55 69.75 69.00 70.00
C 70.43 73.11 64.66 75.34 62.00 77.00
C 61.57 74.06 57.91 76.08 57.00 74.00
C 52.04 74.22 41.02 76.41 37.25 77.59 C 33.48 78.76 20.50 82.41 17.00 77.00
C 17.00 106.33 17.00 135.67 17.00 165.00
C 69.33 165.00 121.67 165.00 174.00 165.00
C 174.31 163.76 173.37 163.01 173.00 162.00
C 170.00 162.29 169.34 158.90 171.00 157.00
C 172.06 158.11 172.84 157.48 174.00 157.00
C 172.85 155.44 173.08 151.87 173.00 151.00
C 172.63 149.78 171.72 144.06 171.00 143.00
C 164.67 140.79 157.81 138.71 151.00 137.00
C 149.06 136.51 146.34 136.34 145.00 135.00
C 164.34 134.22 184.94 125.66 204.00 129.00
C 213.17 131.10 223.61 132.25 233.00 133.00
C 233.00 92.00 233.00 51.00 233.00 10.00
C 225.71 10.00 218.28 10.00 211.00 10.00 C 203.72 10.00 196.22 9.99 189.00 10.00 C 181.78 10.01 175.19 9.99 168.00 10.00 C 160.81 10.01 153.18 9.97 146.00 10.00 C 138.82 10.03 132.17 9.94 125.00 10.00 C 117.83 10.06 110.14 9.87 103.00 10.00 C 95.86 10.13 88.00 9.71 81.00 10.00 C 74.00 10.29 66.70 9.32 60.00 10.00 C 53.30 10.68 44.15 8.56 38.00 10.00 C 31.85 11.44 21.78 6.66 17.00 10.00
C 17.00 31.33 17.00 52.67 17.00 74.00
M 193.00 55.00 
C 195.22 50.52 202.30 47.28 200.00 44.00
C 203.38 41.88 210.69 40.47 207.00 37.00
C 211.59 32.76 214.80 38.49 219.00 40.00
C 217.79 44.86 218.20 53.45 215.22 58.22 C 212.24 62.99 215.36 76.28 207.33 73.67 C 199.30 71.06 204.89 60.53 204.00 55.00
C 198.04 56.54 199.22 63.61 193.00 65.00
C 196.12 71.73 183.97 78.04 180.77 72.23 C 177.57 66.42 183.23 55.81 183.98 50.97 C 184.72 46.14 184.74 32.80 192.01 34.01 C 199.28 35.22 191.20 50.44 193.00 55.00
M 181.00 40.00 
C 179.25 46.86 180.51 47.35 179.78 54.22 C 179.04 61.10 168.88 50.53 166.00 52.00
C 171.62 56.93 153.49 59.93 161.00 63.00
C 154.54 62.87 153.27 71.05 152.00 76.00
C 143.48 76.01 141.57 63.45 147.00 60.00
C 147.34 52.96 144.26 46.85 150.92 38.92 C 157.59 31.00 162.66 47.21 157.00 54.00
C 165.71 48.13 170.09 28.67 181.00 40.00
M 155.00 82.00 
C 160.56 83.83 156.79 92.62 151.00 90.00 C 145.21 87.37 149.77 80.29 155.00 82.00
M 190.00 92.00 
C 205.77 79.92 214.50 118.36 196.00 113.00
C 197.70 107.80 195.54 92.51 190.70 99.70 C 185.85 106.89 192.61 115.67 180.00 113.00
C 179.61 102.81 180.32 92.93 181.00 83.00
C 187.86 81.07 191.88 85.15 190.00 92.00
M 117.00 99.00 
C 120.79 94.01 119.30 82.00 129.00 84.00
C 130.21 88.14 131.49 93.23 135.00 96.00
C 135.16 89.15 138.36 81.27 147.00 84.00
C 145.26 93.84 144.21 99.07 141.00 109.00 C 137.80 118.94 124.74 108.28 126.00 100.00
C 123.22 103.72 123.00 109.18 120.00 113.00
C 105.35 114.54 109.24 93.38 104.00 84.00
C 114.36 80.66 117.10 91.08 117.00 99.00
M 173.00 84.00 
C 172.31 87.61 173.18 92.38 178.00 91.00
C 178.47 94.26 178.15 98.20 174.00 98.00
C 174.00 103.00 174.00 108.00 174.00 113.00
C 171.00 113.00 168.00 113.00 165.00 113.00
C 165.00 108.00 165.00 103.00 165.00 98.00
C 161.07 97.55 160.43 94.70 161.00 91.00
C 166.01 92.58 165.02 87.14 165.00 84.00
C 167.67 84.00 170.33 84.00 173.00 84.00
M 159.00 112.00 
C 155.67 112.00 152.33 112.00 149.00 112.00
C 149.00 105.00 149.00 98.00 149.00 91.00
C 162.75 87.45 156.57 104.30 159.00 112.00
M 149.00 127.00 
C 147.62 130.92 135.88 136.79 139.26 140.75 C 142.64 144.70 153.55 144.59 155.00 151.00
C 147.47 154.10 142.13 144.57 135.00 143.00
C 136.03 148.13 135.63 154.08 129.00 154.00
C 126.22 145.02 128.18 139.70 126.00 130.00 C 123.82 120.29 135.40 126.74 134.00 135.00
C 139.69 133.14 144.62 117.31 149.00 127.00
M 40.00 130.00 
C 32.74 122.93 22.59 134.58 33.07 134.93 C 43.55 135.27 45.20 143.87 39.75 149.75 C 34.30 155.62 24.50 152.60 22.00 146.00
C 23.91 144.22 28.40 144.67 28.00 148.00
C 32.60 148.95 37.35 146.76 38.00 142.00
C 32.36 140.08 20.53 136.07 23.93 128.93 C 27.32 121.78 43.00 122.01 40.00 130.00
M 49.00 124.00 
C 59.05 127.84 51.83 132.76 53.01 142.01 C 54.19 151.25 44.75 156.15 46.00 145.00 C 47.25 133.85 48.65 133.81 49.00 124.00
M 98.00 141.00 
C 102.45 144.91 108.58 147.68 112.00 153.00
C 103.55 156.43 100.13 144.16 92.00 143.00
C 97.24 153.84 86.03 154.35 87.00 147.00 C 87.97 139.64 83.74 130.89 87.31 126.31 C 90.87 121.72 102.64 123.28 106.69 127.31 C 110.75 131.33 105.00 142.21 98.00 141.00
M 114.00 152.00 
C 115.25 143.07 116.02 134.02 117.00 125.00
C 124.76 123.73 122.90 135.29 122.00 140.00 C 121.10 144.71 120.88 155.86 114.00 152.00
M 74.00 126.00 
C 88.39 130.86 83.25 155.47 67.25 152.60 C 51.24 149.74 57.48 120.42 74.00 126.00 Z"/>
</g>
<g fill="None" fill-opacity="0.0" stroke="#E3E3E3" stroke-opacity="1.00" stroke-width="0.3"><path d="
M 17.00 74.00 
C 17.00 75.00 17.00 76.00 17.00 77.00
C 20.50 82.41 33.48 78.76 37.25 77.59 C 41.02 76.41 52.04 74.22 57.00 74.00
C 58.84 73.92 60.47 73.97 62.00 75.00
C 61.77 71.46 64.86 71.25 67.00 69.00
C 65.59 66.65 62.86 67.33 65.00 70.00
C 62.23 71.18 62.45 67.62 60.00 68.00
C 53.84 67.94 44.62 67.19 40.00 70.00
C 40.56 66.24 37.03 68.50 36.00 67.00
C 38.54 63.38 42.27 60.17 46.00 58.00
C 40.08 55.24 49.01 49.01 45.00 45.00
C 49.38 43.19 51.10 39.22 51.00 35.00
C 54.92 37.21 54.04 29.59 58.00 30.00
C 55.51 28.56 55.90 25.78 56.00 23.00
C 51.76 22.68 49.12 18.50 45.00 18.00
C 39.51 36.19 29.23 50.86 27.00 72.00
C 24.84 72.45 18.40 72.03 17.00 74.00 Z"/>
</g>
<g fill="None" fill-opacity="0.0" stroke="#EDEDED" stroke-opacity="1.00" stroke-width="0.3"><path d="
M 193.00 55.00 
C 191.20 50.44 199.28 35.22 192.01 34.01 C 184.74 32.80 184.72 46.14 183.98 50.97 C 183.23 55.81 177.57 66.42 180.77 72.23 C 183.97 78.04 196.12 71.73 193.00 65.00
C 199.22 63.61 198.04 56.54 204.00 55.00
C 204.89 60.53 199.30 71.06 207.33 73.67 C 215.36 76.28 212.24 62.99 215.22 58.22 C 218.20 53.45 217.79 44.86 219.00 40.00
C 214.80 38.49 211.59 32.76 207.00 37.00
C 210.69 40.47 203.38 41.88 200.00 44.00
C 202.30 47.28 195.22 50.52 193.00 55.00 Z"/>
</g>
<g fill="None" fill-opacity="0.0" stroke="#EAEAEA" stroke-opacity="1.00" stroke-width="0.3"><path d="
M 181.00 40.00 
C 170.09 28.67 165.71 48.13 157.00 54.00
C 162.66 47.21 157.59 31.00 150.92 38.92 C 144.26 46.85 147.34 52.96 147.00 60.00
C 141.57 63.45 143.48 76.01 152.00 76.00
C 153.27 71.05 154.54 62.87 161.00 63.00
C 153.49 59.93 171.62 56.93 166.00 52.00
C 168.88 50.53 179.04 61.10 179.78 54.22 C 180.51 47.35 179.25 46.86 181.00 40.00 Z"/>
</g>
<g fill="None" fill-opacity="0.0" stroke="#EEEEEE" stroke-opacity="1.00" stroke-width="0.3"><path d="
M 71.00 66.00 
C 71.19 67.07 72.31 69.70 73.00 71.00
C 75.87 77.99 82.91 74.48 88.00 77.00
C 92.42 72.55 103.34 68.73 107.00 64.00
C 108.80 74.59 118.16 75.77 124.00 68.00
C 124.04 67.74 120.71 66.27 122.00 65.00
C 126.61 66.94 122.33 62.17 124.00 60.00
C 126.89 59.84 128.22 65.49 126.00 67.00
C 126.20 69.34 125.41 72.03 127.00 74.00
C 130.02 73.26 131.92 73.89 135.00 74.00
C 137.42 62.64 140.51 51.56 145.00 41.00
C 140.21 38.65 134.16 37.68 128.07 37.07 C 121.99 36.47 117.60 44.31 113.70 47.70 C 109.80 51.09 107.19 58.07 107.00 63.00
C 98.75 64.14 98.64 66.24 90.07 69.07 C 81.51 71.91 80.19 62.97 88.25 62.39 C 96.31 61.82 93.52 57.88 101.00 58.00
C 98.80 54.07 101.18 51.41 103.89 48.89 C 106.59 46.38 101.42 43.24 104.00 40.00
C 102.01 39.70 99.07 38.10 99.00 36.00
C 91.86 35.62 82.67 37.08 78.80 43.75 C 74.93 50.43 69.15 55.71 71.00 66.00
M 133.00 43.00 
C 130.32 52.76 121.09 59.35 116.00 68.00
C 114.67 58.55 122.81 45.62 133.00 43.00
M 98.00 44.00 
C 96.58 51.34 89.58 55.00 83.00 57.00
C 84.05 49.88 91.50 45.84 98.00 44.00 Z"/>
</g>
<g fill="None" fill-opacity="0.0" stroke="#7B7B7B" stroke-opacity="1.00" stroke-width="0.3"><path d="
M 133.00 43.00 
C 122.81 45.62 114.67 58.55 116.00 68.00
C 121.09 59.35 130.32 52.76 133.00 43.00 Z"/>
</g>
<g fill="None" fill-opacity="0.0" stroke="#7D7D7D" stroke-opacity="1.00" stroke-width="0.3"><path d="
M 98.00 44.00 
C 91.50 45.84 84.05 49.88 83.00 57.00
C 89.58 55.00 96.58 51.34 98.00 44.00 Z"/>
</g>
<g fill="None" fill-opacity="0.0" stroke="#B1B1B1" stroke-opacity="1.00" stroke-width="0.3"><path d="
M 124.00 68.00 
C 124.53 67.30 126.52 66.42 126.00 67.00
C 128.22 65.49 126.89 59.84 124.00 60.00
C 122.33 62.17 126.61 66.94 122.00 65.00
C 120.71 66.27 124.04 67.74 124.00 68.00 Z"/>
</g>
<g fill="None" fill-opacity="0.0" stroke="#A7A7A7" stroke-opacity="1.00" stroke-width="0.3"><path d="
M 60.00 68.00 
C 62.45 67.62 62.23 71.18 65.00 70.00
C 62.86 67.33 65.59 66.65 67.00 69.00
C 64.86 71.25 61.77 71.46 62.00 75.00
C 60.47 73.97 58.84 73.92 57.00 74.00
C 57.91 76.08 61.57 74.06 62.00 77.00
C 64.66 75.34 70.43 73.11 69.00 70.00
C 70.55 69.75 71.74 70.28 73.00 71.00
C 72.31 69.70 71.19 67.07 71.00 66.00
C 70.90 66.21 60.53 67.93 60.00 68.00 Z"/>
</g>
<g fill="None" fill-opacity="0.0" stroke="#E0E0E0" stroke-opacity="1.00" stroke-width="0.3"><path d="
M 155.00 82.00 
C 149.77 80.29 145.21 87.37 151.00 90.00 C 156.79 92.62 160.56 83.83 155.00 82.00 Z"/>
</g>
<g fill="None" fill-opacity="0.0" stroke="#DBDBDB" stroke-opacity="1.00" stroke-width="0.3"><path d="
M 190.00 92.00 
C 191.88 85.15 187.86 81.07 181.00 83.00
C 180.32 92.93 179.61 102.81 180.00 113.00
C 192.61 115.67 185.85 106.89 190.70 99.70 C 195.54 92.51 197.70 107.80 196.00 113.00
C 214.50 118.36 205.77 79.92 190.00 92.00
M 188.00 102.00 
C 183.24 106.19 182.53 99.86 188.00 102.00 Z"/>
</g>
<g fill="None" fill-opacity="0.0" stroke="#DEDEDE" stroke-opacity="1.00" stroke-width="0.3"><path d="
M 117.00 99.00 
C 117.10 91.08 114.36 80.66 104.00 84.00
C 109.24 93.38 105.35 114.54 120.00 113.00
C 123.00 109.18 123.22 103.72 126.00 100.00
C 124.74 108.28 137.80 118.94 141.00 109.00 C 144.21 99.07 145.26 93.84 147.00 84.00
C 138.36 81.27 135.16 89.15 135.00 96.00
C 131.49 93.23 130.21 88.14 129.00 84.00
C 119.30 82.00 120.79 94.01 117.00 99.00
M 142.00 99.00 
C 141.02 101.33 140.88 102.59 139.00 103.00
C 138.31 100.28 136.35 101.37 136.00 99.00
C 138.38 99.06 139.71 99.95 142.00 99.00 Z"/>
</g>
<g fill="None" fill-opacity="0.0" stroke="#E6E6E6" stroke-opacity="1.00" stroke-width="0.3"><path d="
M 173.00 84.00 
C 170.33 84.00 167.67 84.00 165.00 84.00
C 165.02 87.14 166.01 92.58 161.00 91.00
C 160.43 94.70 161.07 97.55 165.00 98.00
C 165.00 103.00 165.00 108.00 165.00 113.00
C 168.00 113.00 171.00 113.00 174.00 113.00
C 174.00 108.00 174.00 103.00 174.00 98.00
C 178.15 98.20 178.47 94.26 178.00 91.00
C 173.18 92.38 172.31 87.61 173.00 84.00 Z"/>
</g>
<g fill="None" fill-opacity="0.0" stroke="#DADADA" stroke-opacity="1.00" stroke-width="0.3"><path d="
M 159.00 112.00 
C 156.57 104.30 162.75 87.45 149.00 91.00
C 149.00 98.00 149.00 105.00 149.00 112.00
C 152.33 112.00 155.67 112.00 159.00 112.00 Z"/>
</g>
<g fill="None" fill-opacity="0.0" stroke="#A3A3A3" stroke-opacity="1.00" stroke-width="0.3"><path d="
M 142.00 99.00 
C 139.71 99.95 138.38 99.06 136.00 99.00
C 136.35 101.37 138.31 100.28 139.00 103.00
C 140.88 102.59 141.02 101.33 142.00 99.00 Z"/>
</g>
<g fill="None" fill-opacity="0.0" stroke="#9D9D9D" stroke-opacity="1.00" stroke-width="0.3"><path d="
M 188.00 102.00 
C 182.53 99.86 183.24 106.19 188.00 102.00 Z"/>
</g>
<g fill="None" fill-opacity="0.0" stroke="#EDEDED" stroke-opacity="1.00" stroke-width="0.3"><path d="
M 149.00 127.00 
C 144.62 117.31 139.69 133.14 134.00 135.00
C 135.40 126.74 123.82 120.29 126.00 130.00 C 128.18 139.70 126.22 145.02 129.00 154.00
C 135.63 154.08 136.03 148.13 135.00 143.00
C 142.13 144.57 147.47 154.10 155.00 151.00
C 153.55 144.59 142.64 144.70 139.26 140.75 C 135.88 136.79 147.62 130.92 149.00 127.00 Z"/>
</g>
<g fill="None" fill-opacity="0.0" stroke="#EDEDED" stroke-opacity="1.00" stroke-width="0.3"><path d="
M 40.00 130.00 
C 43.00 122.01 27.32 121.78 23.93 128.93 C 20.53 136.07 32.36 140.08 38.00 142.00
C 37.35 146.76 32.60 148.95 28.00 148.00
C 28.40 144.67 23.91 144.22 22.00 146.00
C 24.50 152.60 34.30 155.62 39.75 149.75 C 45.20 143.87 43.55 135.27 33.07 134.93 C 22.59 134.58 32.74 122.93 40.00 130.00 Z"/>
</g>
<g fill="None" fill-opacity="0.0" stroke="#EFEFEF" stroke-opacity="1.00" stroke-width="0.3"><path d="
M 49.00 124.00 
C 48.65 133.81 47.25 133.85 46.00 145.00 C 44.75 156.15 54.19 151.25 53.01 142.01 C 51.83 132.76 59.05 127.84 49.00 124.00 Z"/>
</g>
<g fill="None" fill-opacity="0.0" stroke="#ECECEC" stroke-opacity="1.00" stroke-width="0.3"><path d="
M 98.00 141.00 
C 105.00 142.21 110.75 131.33 106.69 127.31 C 102.64 123.28 90.87 121.72 87.31 126.31 C 83.74 130.89 87.97 139.64 87.00 147.00 C 86.03 154.35 97.24 153.84 92.00 143.00
C 100.13 144.16 103.55 156.43 112.00 153.00
C 108.58 147.68 102.45 144.91 98.00 141.00
M 91.00 137.00 
C 87.00 130.06 95.18 122.89 101.74 128.26 C 108.30 133.62 96.49 139.71 91.00 137.00 Z"/>
</g>
<g fill="None" fill-opacity="0.0" stroke="#F0F0F0" stroke-opacity="1.00" stroke-width="0.3"><path d="
M 114.00 152.00 
C 120.88 155.86 121.10 144.71 122.00 140.00 C 122.90 135.29 124.76 123.73 117.00 125.00
C 116.02 134.02 115.25 143.07 114.00 152.00 Z"/>
</g>
<g fill="None" fill-opacity="0.0" stroke="#EFEFEF" stroke-opacity="1.00" stroke-width="0.3"><path d="
M 74.00 126.00 
C 57.48 120.42 51.24 149.74 67.25 152.60 C 83.25 155.47 88.39 130.86 74.00 126.00
M 78.00 145.00 
C 74.92 150.31 62.79 148.79 63.03 142.97 C 63.26 137.16 63.14 129.92 70.67 130.33 C 78.20 130.75 78.45 139.60 78.00 145.00 Z"/>
</g>
<g fill="None" fill-opacity="0.0" stroke="#797979" stroke-opacity="1.00" stroke-width="0.3"><path d="
M 91.00 137.00 
C 96.49 139.71 108.30 133.62 101.74 128.26 C 95.18 122.89 87.00 130.06 91.00 137.00 Z"/>
</g>
<g fill="None" fill-opacity="0.0" stroke="#373737" stroke-opacity="1.00" stroke-width="0.3"><path d="
M 151.00 137.00 
C 158.84 137.80 166.66 140.60 175.08 141.07 C 183.49 141.54 193.07 135.83 201.00 137.00
C 194.69 141.96 183.98 139.40 177.00 143.00
C 191.50 148.30 206.89 152.24 221.00 144.00
C 220.44 144.40 230.23 137.72 235.00 137.00
C 225.96 131.77 213.08 134.29 204.00 129.00
C 184.94 125.66 164.34 134.22 145.00 135.00
C 146.34 136.34 149.06 136.51 151.00 137.00 Z"/>
</g>
<g fill="None" fill-opacity="0.0" stroke="#515151" stroke-opacity="1.00" stroke-width="0.3"><path d="
M 221.00 144.00 
C 224.29 142.83 227.72 142.21 231.00 141.00
C 235.71 138.36 241.81 137.14 247.00 135.00
C 243.11 132.85 237.73 133.38 233.00 133.00
C 223.61 132.25 213.17 131.10 204.00 129.00
C 213.08 134.29 225.96 131.77 235.00 137.00
C 230.23 137.72 220.44 144.40 221.00 144.00 Z"/>
</g>
<g fill="None" fill-opacity="0.0" stroke="#7C7C7C" stroke-opacity="1.00" stroke-width="0.3"><path d="
M 78.00 145.00 
C 78.45 139.60 78.20 130.75 70.67 130.33 C 63.14 129.92 63.26 137.16 63.03 142.97 C 62.79 148.79 74.92 150.31 78.00 145.00 Z"/>
</g>
<g fill="None" fill-opacity="0.0" stroke="#101010" stroke-opacity="1.00" stroke-width="0.3"><path d="
M 151.00 137.00 
C 157.81 138.71 164.67 140.79 171.00 143.00
C 172.64 143.57 173.12 143.52 175.00 143.00
C 172.70 146.14 173.10 148.35 173.00 151.00
C 173.08 151.87 172.85 155.44 174.00 157.00
C 174.18 157.24 177.64 160.64 178.00 161.00
C 180.12 163.10 182.29 163.11 185.00 164.00
C 188.26 165.07 191.26 166.75 195.00 166.00
C 195.35 161.79 200.92 160.85 204.00 160.00
C 198.16 157.79 206.73 152.60 210.01 153.01 C 213.29 153.41 219.65 150.22 222.00 148.00
C 223.14 146.93 223.34 144.20 226.03 144.03 C 228.71 143.85 230.20 143.16 232.00 142.00
C 231.78 141.70 231.34 141.01 231.00 141.00
C 227.72 142.21 224.29 142.83 221.00 144.00
C 206.89 152.24 191.50 148.30 177.00 143.00
C 183.98 139.40 194.69 141.96 201.00 137.00
C 193.07 135.83 183.49 141.54 175.08 141.07 C 166.66 140.60 158.84 137.80 151.00 137.00 Z"/>
</g>
<g fill="None" fill-opacity="0.0" stroke="#747474" stroke-opacity="1.00" stroke-width="0.3"><path d="
M 222.00 148.00 
C 221.52 150.20 222.62 152.85 222.00 155.00
C 224.11 154.21 225.89 152.99 228.00 152.00
C 229.99 151.07 232.19 149.97 234.00 149.00
C 232.15 147.21 233.51 144.05 232.00 142.00
C 230.20 143.16 228.71 143.85 226.03 144.03 C 223.34 144.20 223.14 146.93 222.00 148.00 Z"/>
</g>
<g fill="None" fill-opacity="0.0" stroke="#3E3E3E" stroke-opacity="1.00" stroke-width="0.3"><path d="
M 173.00 151.00 
C 173.10 148.35 172.70 146.14 175.00 143.00
C 173.12 143.52 172.64 143.57 171.00 143.00
C 171.72 144.06 172.63 149.78 173.00 151.00 Z"/>
</g>
<g fill="None" fill-opacity="0.0" stroke="#E0E0E0" stroke-opacity="1.00" stroke-width="0.3"><path d="
M 234.00 149.00 
C 232.19 149.97 229.99 151.07 228.00 152.00
C 225.10 153.89 225.28 155.20 221.00 156.00
C 215.24 157.07 209.65 158.45 204.00 160.00
C 200.92 160.85 195.35 161.79 195.00 166.00
C 194.50 171.94 201.17 172.93 205.00 172.00
C 207.92 170.21 207.72 165.13 212.07 165.07 C 216.42 165.02 218.49 160.33 223.00 161.00
C 221.26 164.24 209.15 165.36 213.00 168.00
C 215.59 166.72 219.08 165.21 222.00 165.00
C 225.52 162.11 222.85 156.34 228.00 155.00
C 231.11 155.69 228.94 162.03 233.00 159.00
C 233.38 155.28 241.91 157.02 241.99 152.01 C 242.08 147.00 237.94 146.89 234.00 149.00 Z"/>
</g>
<g fill="None" fill-opacity="0.0" stroke="#343434" stroke-opacity="1.00" stroke-width="0.3"><path d="
M 204.00 160.00 
C 209.65 158.45 215.24 157.07 221.00 156.00
C 221.24 155.94 221.65 155.13 222.00 155.00
C 222.62 152.85 221.52 150.20 222.00 148.00
C 219.65 150.22 213.29 153.41 210.01 153.01 C 206.73 152.60 198.16 157.79 204.00 160.00 Z"/>
</g>
<g fill="None" fill-opacity="0.0" stroke="#989898" stroke-opacity="1.00" stroke-width="0.3"><path d="
M 222.00 155.00 
C 221.65 155.13 221.24 155.94 221.00 156.00
C 225.28 155.20 225.10 153.89 228.00 152.00
C 225.89 152.99 224.11 154.21 222.00 155.00 Z"/>
</g>
<g fill="None" fill-opacity="0.0" stroke="#7C7C7C" stroke-opacity="1.00" stroke-width="0.3"><path d="
M 222.00 165.00 
C 224.62 164.82 226.65 165.46 229.00 166.00
C 230.45 165.68 230.45 163.72 233.00 164.00
C 233.25 163.92 233.76 163.25 234.00 163.00
C 234.22 162.76 234.85 161.07 235.00 161.00
C 233.00 160.46 233.97 159.59 233.00 159.00
C 228.94 162.03 231.11 155.69 228.00 155.00
C 222.85 156.34 225.52 162.11 222.00 165.00 Z"/>
</g>
<g fill="None" fill-opacity="0.0" stroke="#939393" stroke-opacity="1.00" stroke-width="0.3"><path d="
M 173.00 162.00 
C 172.91 161.76 173.65 161.11 174.00 161.00
C 174.22 160.93 177.42 160.78 178.00 161.00
C 177.64 160.64 174.18 157.24 174.00 157.00
C 172.84 157.48 172.06 158.11 171.00 157.00
C 169.34 158.90 170.00 162.29 173.00 162.00 Z"/>
</g>
<g fill="None" fill-opacity="0.0" stroke="#737373" stroke-opacity="1.00" stroke-width="0.3"><path d="
M 174.00 161.00 
C 175.95 161.43 176.01 163.67 177.00 165.00
C 179.42 166.15 183.36 163.90 185.00 164.00
C 182.29 163.11 180.12 163.10 178.00 161.00
C 177.42 160.78 174.22 160.93 174.00 161.00 Z"/>
</g>
<g fill="None" fill-opacity="0.0" stroke="#B5B5B5" stroke-opacity="1.00" stroke-width="0.3"><path d="
M 205.00 172.00 
C 208.13 171.24 210.36 169.31 213.00 168.00
C 209.15 165.36 221.26 164.24 223.00 161.00
C 218.49 160.33 216.42 165.02 212.07 165.07 C 207.72 165.13 207.92 170.21 205.00 172.00 Z"/>
</g>
<g fill="None" fill-opacity="0.0" stroke="#9C9C9C" stroke-opacity="1.00" stroke-width="0.3"><path d="
M 234.00 163.00 
C 237.73 163.00 241.62 163.32 245.00 162.00
C 242.70 159.58 238.11 161.84 235.00 161.00
C 234.85 161.07 234.22 162.76 234.00 163.00 Z"/>
</g>
<g fill="None" fill-opacity="0.0" stroke="#BDBDBD" stroke-opacity="1.00" stroke-width="0.3"><path d="
M 229.00 166.00 
C 229.47 166.11 230.51 166.08 231.00 166.00
C 231.79 165.87 233.88 164.87 234.00 164.00
C 234.00 164.00 233.49 164.05 233.00 164.00
C 230.45 163.72 230.45 165.68 229.00 166.00 Z"/>
</g>
<g fill="None" fill-opacity="0.0" stroke="#828282" stroke-opacity="1.00" stroke-width="0.3"><path d="
M 231.00 166.00 
C 232.26 167.66 235.17 167.09 237.00 168.00
C 236.97 165.80 235.91 164.40 234.00 164.00
C 233.88 164.87 231.79 165.87 231.00 166.00 Z"/>
</g>
<g fill="#303030" fill-opacity="1.00" stroke="None">
<path d="
M 0.00 175.00 
L 250.00 175.00
L 250.00 0.00
L 0.00 0.00
L 0.00 175.00
M 233.00 133.00 
C 237.73 133.38 243.11 132.85 247.00 135.00
C 241.81 137.14 235.71 138.36 231.00 141.00
C 231.34 141.01 231.78 141.70 232.00 142.00
C 233.51 144.05 232.15 147.21 234.00 149.00
C 237.94 146.89 242.08 147.00 241.99 152.01 C 241.91 157.02 233.38 155.28 233.00 159.00
C 233.97 159.59 233.00 160.46 235.00 161.00
C 238.11 161.84 242.70 159.58 245.00 162.00
C 241.62 163.32 237.73 163.00 234.00 163.00
C 233.76 163.25 233.25 163.92 233.00 164.00
C 233.49 164.05 234.00 164.00 234.00 164.00
C 235.91 164.40 236.97 165.80 237.00 168.00
C 235.17 167.09 232.26 167.66 231.00 166.00
C 230.51 166.08 229.47 166.11 229.00 166.00
C 226.65 165.46 224.62 164.82 222.00 165.00
C 219.08 165.21 215.59 166.72 213.00 168.00
C 210.36 169.31 208.13 171.24 205.00 172.00
C 201.17 172.93 194.50 171.94 195.00 166.00
C 191.26 166.75 188.26 165.07 185.00 164.00
C 183.36 163.90 179.42 166.15 177.00 165.00
C 176.01 163.67 175.95 161.43 174.00 161.00
C 173.65 161.11 172.91 161.76 173.00 162.00
C 173.37 163.01 174.31 163.76 174.00 165.00
C 121.67 165.00 69.33 165.00 17.00 165.00
C 12.70 161.99 17.25 149.70 16.00 144.00 C 14.75 138.30 16.49 128.67 16.00 122.00 C 15.51 115.33 16.14 105.99 16.00 99.00 C 15.86 92.01 15.83 84.00 16.00 77.00 C 16.17 70.00 15.46 60.68 16.00 54.00 C 16.54 47.32 14.65 37.72 16.00 32.00 C 17.35 26.28 12.62 13.06 17.00 10.00
C 21.78 6.66 31.85 11.44 38.00 10.00 C 44.15 8.56 53.30 10.68 60.00 10.00 C 66.70 9.32 74.00 10.29 81.00 10.00 C 88.00 9.71 95.86 10.13 103.00 10.00 C 110.14 9.87 117.83 10.06 125.00 10.00 C 132.17 9.94 138.82 10.03 146.00 10.00 C 153.18 9.97 160.81 10.01 168.00 10.00 C 175.19 9.99 181.78 10.01 189.00 10.00 C 196.22 9.99 203.72 10.00 211.00 10.00 C 218.28 10.00 225.71 10.00 233.00 10.00
C 233.00 51.00 233.00 92.00 233.00 133.00 Z"/>
</g>
<g fill="#565656" fill-opacity="1.00" stroke="None">
<path d="
M 17.00 165.00 
C 17.00 135.67 17.00 106.33 17.00 77.00
C 17.00 76.00 17.00 75.00 17.00 74.00
C 17.00 52.67 17.00 31.33 17.00 10.00
C 12.62 13.06 17.35 26.28 16.00 32.00 C 14.65 37.72 16.54 47.32 16.00 54.00 C 15.46 60.68 16.17 70.00 16.00 77.00 C 15.83 84.00 15.86 92.01 16.00 99.00 C 16.14 105.99 15.51 115.33 16.00 122.00 C 16.49 128.67 14.75 138.30 16.00 144.00 C 17.25 149.70 12.70 161.99 17.00 165.00 Z"/>
</g>
<g fill="#797979" fill-opacity="1.00" stroke="None">
<path d="
M 17.00 74.00 
C 18.40 72.03 24.84 72.45 27.00 72.00
C 29.23 50.86 39.51 36.19 45.00 18.00
C 49.12 18.50 51.76 22.68 56.00 23.00
C 55.90 25.78 55.51 28.56 58.00 30.00
C 54.04 29.59 54.92 37.21 51.00 35.00
C 51.10 39.22 49.38 43.19 45.00 45.00
C 49.01 49.01 40.08 55.24 46.00 58.00
C 42.27 60.17 38.54 63.38 36.00 67.00
C 37.03 68.50 40.56 66.24 40.00 70.00
C 44.62 67.19 53.84 67.94 60.00 68.00
C 60.53 67.93 70.90 66.21 71.00 66.00
C 69.15 55.71 74.93 50.43 78.80 43.75 C 82.67 37.08 91.86 35.62 99.00 36.00
C 99.07 38.10 102.01 39.70 104.00 40.00
C 101.42 43.24 106.59 46.38 103.89 48.89 C 101.18 51.41 98.80 54.07 101.00 58.00
C 93.52 57.88 96.31 61.82 88.25 62.39 C 80.19 62.97 81.51 71.91 90.07 69.07 C 98.64 66.24 98.75 64.14 107.00 63.00
C 107.19 58.07 109.80 51.09 113.70 47.70 C 117.60 44.31 121.99 36.47 128.07 37.07 C 134.16 37.68 140.21 38.65 145.00 41.00
C 140.51 51.56 137.42 62.64 135.00 74.00
C 131.92 73.89 130.02 73.26 127.00 74.00
C 125.41 72.03 126.20 69.34 126.00 67.00
C 126.52 66.42 124.53 67.30 124.00 68.00
C 118.16 75.77 108.80 74.59 107.00 64.00
C 103.34 68.73 92.42 72.55 88.00 77.00
C 82.91 74.48 75.87 77.99 73.00 71.00
C 71.74 70.28 70.55 69.75 69.00 70.00
C 70.43 73.11 64.66 75.34 62.00 77.00
C 61.57 74.06 57.91 76.08 57.00 74.00
C 52.04 74.22 41.02 76.41 37.25 77.59 C 33.48 78.76 20.50 82.41 17.00 77.00
C 17.00 106.33 17.00 135.67 17.00 165.00
C 69.33 165.00 121.67 165.00 174.00 165.00
C 174.31 163.76 173.37 163.01 173.00 162.00
C 170.00 162.29 169.34 158.90 171.00 157.00
C 172.06 158.11 172.84 157.48 174.00 157.00
C 172.85 155.44 173.08 151.87 173.00 151.00
C 172.63 149.78 171.72 144.06 171.00 143.00
C 164.67 140.79 157.81 138.71 151.00 137.00
C 149.06 136.51 146.34 136.34 145.00 135.00
C 164.34 134.22 184.94 125.66 204.00 129.00
C 213.17 131.10 223.61 132.25 233.00 133.00
C 233.00 92.00 233.00 51.00 233.00 10.00
C 225.71 10.00 218.28 10.00 211.00 10.00 C 203.72 10.00 196.22 9.99 189.00 10.00 C 181.78 10.01 175.19 9.99 168.00 10.00 C 160.81 10.01 153.18 9.97 146.00 10.00 C 138.82 10.03 132.17 9.94 125.00 10.00 C 117.83 10.06 110.14 9.87 103.00 10.00 C 95.86 10.13 88.00 9.71 81.00 10.00 C 74.00 10.29 66.70 9.32 60.00 10.00 C 53.30 10.68 44.15 8.56 38.00 10.00 C 31.85 11.44 21.78 6.66 17.00 10.00
C 17.00 31.33 17.00 52.67 17.00 74.00
M 193.00 55.00 
C 195.22 50.52 202.30 47.28 200.00 44.00
C 203.38 41.88 210.69 40.47 207.00 37.00
C 211.59 32.76 214.80 38.49 219.00 40.00
C 217.79 44.86 218.20 53.45 215.22 58.22 C 212.24 62.99 215.36 76.28 207.33 73.67 C 199.30 71.06 204.89 60.53 204.00 55.00
C 198.04 56.54 199.22 63.61 193.00 65.00
C 196.12 71.73 183.97 78.04 180.77 72.23 C 177.57 66.42 183.23 55.81 183.98 50.97 C 184.72 46.14 184.74 32.80 192.01 34.01 C 199.28 35.22 191.20 50.44 193.00 55.00
M 181.00 40.00 
C 179.25 46.86 180.51 47.35 179.78 54.22 C 179.04 61.10 168.88 50.53 166.00 52.00
C 171.62 56.93 153.49 59.93 161.00 63.00
C 154.54 62.87 153.27 71.05 152.00 76.00
C 143.48 76.01 141.57 63.45 147.00 60.00
C 147.34 52.96 144.26 46.85 150.92 38.92 C 157.59 31.00 162.66 47.21 157.00 54.00
C 165.71 48.13 170.09 28.67 181.00 40.00
M 155.00 82.00 
C 160.56 83.83 156.79 92.62 151.00 90.00 C 145.21 87.37 149.77 80.29 155.00 82.00
M 190.00 92.00 
C 205.77 79.92 214.50 118.36 196.00 113.00
C 197.70 107.80 195.54 92.51 190.70 99.70 C 185.85 106.89 192.61 115.67 180.00 113.00
C 179.61 102.81 180.32 92.93 181.00 83.00
C 187.86 81.07 191.88 85.15 190.00 92.00
M 117.00 99.00 
C 120.79 94.01 119.30 82.00 129.00 84.00
C 130.21 88.14 131.49 93.23 135.00 96.00
C 135.16 89.15 138.36 81.27 147.00 84.00
C 145.26 93.84 144.21 99.07 141.00 109.00 C 137.80 118.94 124.74 108.28 126.00 100.00
C 123.22 103.72 123.00 109.18 120.00 113.00
C 105.35 114.54 109.24 93.38 104.00 84.00
C 114.36 80.66 117.10 91.08 117.00 99.00
M 173.00 84.00 
C 172.31 87.61 173.18 92.38 178.00 91.00
C 178.47 94.26 178.15 98.20 174.00 98.00
C 174.00 103.00 174.00 108.00 174.00 113.00
C 171.00 113.00 168.00 113.00 165.00 113.00
C 165.00 108.00 165.00 103.00 165.00 98.00
C 161.07 97.55 160.43 94.70 161.00 91.00
C 166.01 92.58 165.02 87.14 165.00 84.00
C 167.67 84.00 170.33 84.00 173.00 84.00
M 159.00 112.00 
C 155.67 112.00 152.33 112.00 149.00 112.00
C 149.00 105.00 149.00 98.00 149.00 91.00
C 162.75 87.45 156.57 104.30 159.00 112.00
M 149.00 127.00 
C 147.62 130.92 135.88 136.79 139.26 140.75 C 142.64 144.70 153.55 144.59 155.00 151.00
C 147.47 154.10 142.13 144.57 135.00 143.00
C 136.03 148.13 135.63 154.08 129.00 154.00
C 126.22 145.02 128.18 139.70 126.00 130.00 C 123.82 120.29 135.40 126.74 134.00 135.00
C 139.69 133.14 144.62 117.31 149.00 127.00
M 40.00 130.00 
C 32.74 122.93 22.59 134.58 33.07 134.93 C 43.55 135.27 45.20 143.87 39.75 149.75 C 34.30 155.62 24.50 152.60 22.00 146.00
C 23.91 144.22 28.40 144.67 28.00 148.00
C 32.60 148.95 37.35 146.76 38.00 142.00
C 32.36 140.08 20.53 136.07 23.93 128.93 C 27.32 121.78 43.00 122.01 40.00 130.00
M 49.00 124.00 
C 59.05 127.84 51.83 132.76 53.01 142.01 C 54.19 151.25 44.75 156.15 46.00 145.00 C 47.25 133.85 48.65 133.81 49.00 124.00
M 98.00 141.00 
C 102.45 144.91 108.58 147.68 112.00 153.00
C 103.55 156.43 100.13 144.16 92.00 143.00
C 97.24 153.84 86.03 154.35 87.00 147.00 C 87.97 139.64 83.74 130.89 87.31 126.31 C 90.87 121.72 102.64 123.28 106.69 127.31 C 110.75 131.33 105.00 142.21 98.00 141.00
M 114.00 152.00 
C 115.25 143.07 116.02 134.02 117.00 125.00
C 124.76 123.73 122.90 135.29 122.00 140.00 C 121.10 144.71 120.88 155.86 114.00 152.00
M 74.00 126.00 
C 88.39 130.86 83.25 155.47 67.25 152.60 C 51.24 149.74 57.48 120.42 74.00 126.00 Z"/>
</g>
<g fill="#E3E3E3" fill-opacity="1.00" stroke="None">
<path d="
M 17.00 74.00 
C 17.00 75.00 17.00 76.00 17.00 77.00
C 20.50 82.41 33.48 78.76 37.25 77.59 C 41.02 76.41 52.04 74.22 57.00 74.00
C 58.84 73.92 60.47 73.97 62.00 75.00
C 61.77 71.46 64.86 71.25 67.00 69.00
C 65.59 66.65 62.86 67.33 65.00 70.00
C 62.23 71.18 62.45 67.62 60.00 68.00
C 53.84 67.94 44.62 67.19 40.00 70.00
C 40.56 66.24 37.03 68.50 36.00 67.00
C 38.54 63.38 42.27 60.17 46.00 58.00
C 40.08 55.24 49.01 49.01 45.00 45.00
C 49.38 43.19 51.10 39.22 51.00 35.00
C 54.92 37.21 54.04 29.59 58.00 30.00
C 55.51 28.56 55.90 25.78 56.00 23.00
C 51.76 22.68 49.12 18.50 45.00 18.00
C 39.51 36.19 29.23 50.86 27.00 72.00
C 24.84 72.45 18.40 72.03 17.00 74.00 Z"/>
</g>
<g fill="#EDEDED" fill-opacity="1.00" stroke="None">
<path d="
M 193.00 55.00 
C 191.20 50.44 199.28 35.22 192.01 34.01 C 184.74 32.80 184.72 46.14 183.98 50.97 C 183.23 55.81 177.57 66.42 180.77 72.23 C 183.97 78.04 196.12 71.73 193.00 65.00
C 199.22 63.61 198.04 56.54 204.00 55.00
C 204.89 60.53 199.30 71.06 207.33 73.67 C 215.36 76.28 212.24 62.99 215.22 58.22 C 218.20 53.45 217.79 44.86 219.00 40.00
C 214.80 38.49 211.59 32.76 207.00 37.00
C 210.69 40.47 203.38 41.88 200.00 44.00
C 202.30 47.28 195.22 50.52 193.00 55.00 Z"/>
</g>
<g fill="#EAEAEA" fill-opacity="1.00" stroke="None">
<path d="
M 181.00 40.00 
C 170.09 28.67 165.71 48.13 157.00 54.00
C 162.66 47.21 157.59 31.00 150.92 38.92 C 144.26 46.85 147.34 52.96 147.00 60.00
C 141.57 63.45 143.48 76.01 152.00 76.00
C 153.27 71.05 154.54 62.87 161.00 63.00
C 153.49 59.93 171.62 56.93 166.00 52.00
C 168.88 50.53 179.04 61.10 179.78 54.22 C 180.51 47.35 179.25 46.86 181.00 40.00 Z"/>
</g>
<g fill="#EEEEEE" fill-opacity="1.00" stroke="None">
<path d="
M 71.00 66.00 
C 71.19 67.07 72.31 69.70 73.00 71.00
C 75.87 77.99 82.91 74.48 88.00 77.00
C 92.42 72.55 103.34 68.73 107.00 64.00
C 108.80 74.59 118.16 75.77 124.00 68.00
C 124.04 67.74 120.71 66.27 122.00 65.00
C 126.61 66.94 122.33 62.17 124.00 60.00
C 126.89 59.84 128.22 65.49 126.00 67.00
C 126.20 69.34 125.41 72.03 127.00 74.00
C 130.02 73.26 131.92 73.89 135.00 74.00
C 137.42 62.64 140.51 51.56 145.00 41.00
C 140.21 38.65 134.16 37.68 128.07 37.07 C 121.99 36.47 117.60 44.31 113.70 47.70 C 109.80 51.09 107.19 58.07 107.00 63.00
C 98.75 64.14 98.64 66.24 90.07 69.07 C 81.51 71.91 80.19 62.97 88.25 62.39 C 96.31 61.82 93.52 57.88 101.00 58.00
C 98.80 54.07 101.18 51.41 103.89 48.89 C 106.59 46.38 101.42 43.24 104.00 40.00
C 102.01 39.70 99.07 38.10 99.00 36.00
C 91.86 35.62 82.67 37.08 78.80 43.75 C 74.93 50.43 69.15 55.71 71.00 66.00
M 133.00 43.00 
C 130.32 52.76 121.09 59.35 116.00 68.00
C 114.67 58.55 122.81 45.62 133.00 43.00
M 98.00 44.00 
C 96.58 51.34 89.58 55.00 83.00 57.00
C 84.05 49.88 91.50 45.84 98.00 44.00 Z"/>
</g>
<g fill="#7B7B7B" fill-opacity="1.00" stroke="None">
<path d="
M 133.00 43.00 
C 122.81 45.62 114.67 58.55 116.00 68.00
C 121.09 59.35 130.32 52.76 133.00 43.00 Z"/>
</g>
<g fill="#7D7D7D" fill-opacity="1.00" stroke="None">
<path d="
M 98.00 44.00 
C 91.50 45.84 84.05 49.88 83.00 57.00
C 89.58 55.00 96.58 51.34 98.00 44.00 Z"/>
</g>
<g fill="#B1B1B1" fill-opacity="1.00" stroke="None">
<path d="
M 124.00 68.00 
C 124.53 67.30 126.52 66.42 126.00 67.00
C 128.22 65.49 126.89 59.84 124.00 60.00
C 122.33 62.17 126.61 66.94 122.00 65.00
C 120.71 66.27 124.04 67.74 124.00 68.00 Z"/>
</g>
<g fill="#A7A7A7" fill-opacity="1.00" stroke="None">
<path d="
M 60.00 68.00 
C 62.45 67.62 62.23 71.18 65.00 70.00
C 62.86 67.33 65.59 66.65 67.00 69.00
C 64.86 71.25 61.77 71.46 62.00 75.00
C 60.47 73.97 58.84 73.92 57.00 74.00
C 57.91 76.08 61.57 74.06 62.00 77.00
C 64.66 75.34 70.43 73.11 69.00 70.00
C 70.55 69.75 71.74 70.28 73.00 71.00
C 72.31 69.70 71.19 67.07 71.00 66.00
C 70.90 66.21 60.53 67.93 60.00 68.00 Z"/>
</g>
<g fill="#E0E0E0" fill-opacity="1.00" stroke="None">
<path d="
M 155.00 82.00 
C 149.77 80.29 145.21 87.37 151.00 90.00 C 156.79 92.62 160.56 83.83 155.00 82.00 Z"/>
</g>
<g fill="#DBDBDB" fill-opacity="1.00" stroke="None">
<path d="
M 190.00 92.00 
C 191.88 85.15 187.86 81.07 181.00 83.00
C 180.32 92.93 179.61 102.81 180.00 113.00
C 192.61 115.67 185.85 106.89 190.70 99.70 C 195.54 92.51 197.70 107.80 196.00 113.00
C 214.50 118.36 205.77 79.92 190.00 92.00
M 188.00 102.00 
C 183.24 106.19 182.53 99.86 188.00 102.00 Z"/>
</g>
<g fill="#DEDEDE" fill-opacity="1.00" stroke="None">
<path d="
M 117.00 99.00 
C 117.10 91.08 114.36 80.66 104.00 84.00
C 109.24 93.38 105.35 114.54 120.00 113.00
C 123.00 109.18 123.22 103.72 126.00 100.00
C 124.74 108.28 137.80 118.94 141.00 109.00 C 144.21 99.07 145.26 93.84 147.00 84.00
C 138.36 81.27 135.16 89.15 135.00 96.00
C 131.49 93.23 130.21 88.14 129.00 84.00
C 119.30 82.00 120.79 94.01 117.00 99.00
M 142.00 99.00 
C 141.02 101.33 140.88 102.59 139.00 103.00
C 138.31 100.28 136.35 101.37 136.00 99.00
C 138.38 99.06 139.71 99.95 142.00 99.00 Z"/>
</g>
<g fill="#E6E6E6" fill-opacity="1.00" stroke="None">
<path d="
M 173.00 84.00 
C 170.33 84.00 167.67 84.00 165.00 84.00
C 165.02 87.14 166.01 92.58 161.00 91.00
C 160.43 94.70 161.07 97.55 165.00 98.00
C 165.00 103.00 165.00 108.00 165.00 113.00
C 168.00 113.00 171.00 113.00 174.00 113.00
C 174.00 108.00 174.00 103.00 174.00 98.00
C 178.15 98.20 178.47 94.26 178.00 91.00
C 173.18 92.38 172.31 87.61 173.00 84.00 Z"/>
</g>
<g fill="#DADADA" fill-opacity="1.00" stroke="None">
<path d="
M 159.00 112.00 
C 156.57 104.30 162.75 87.45 149.00 91.00
C 149.00 98.00 149.00 105.00 149.00 112.00
C 152.33 112.00 155.67 112.00 159.00 112.00 Z"/>
</g>
<g fill="#A3A3A3" fill-opacity="1.00" stroke="None">
<path d="
M 142.00 99.00 
C 139.71 99.95 138.38 99.06 136.00 99.00
C 136.35 101.37 138.31 100.28 139.00 103.00
C 140.88 102.59 141.02 101.33 142.00 99.00 Z"/>
</g>
<g fill="#9D9D9D" fill-opacity="1.00" stroke="None">
<path d="
M 188.00 102.00 
C 182.53 99.86 183.24 106.19 188.00 102.00 Z"/>
</g>
<g fill="#EDEDED" fill-opacity="1.00" stroke="None">
<path d="
M 149.00 127.00 
C 144.62 117.31 139.69 133.14 134.00 135.00
C 135.40 126.74 123.82 120.29 126.00 130.00 C 128.18 139.70 126.22 145.02 129.00 154.00
C 135.63 154.08 136.03 148.13 135.00 143.00
C 142.13 144.57 147.47 154.10 155.00 151.00
C 153.55 144.59 142.64 144.70 139.26 140.75 C 135.88 136.79 147.62 130.92 149.00 127.00 Z"/>
</g>
<g fill="#EDEDED" fill-opacity="1.00" stroke="None">
<path d="
M 40.00 130.00 
C 43.00 122.01 27.32 121.78 23.93 128.93 C 20.53 136.07 32.36 140.08 38.00 142.00
C 37.35 146.76 32.60 148.95 28.00 148.00
C 28.40 144.67 23.91 144.22 22.00 146.00
C 24.50 152.60 34.30 155.62 39.75 149.75 C 45.20 143.87 43.55 135.27 33.07 134.93 C 22.59 134.58 32.74 122.93 40.00 130.00 Z"/>
</g>
<g fill="#EFEFEF" fill-opacity="1.00" stroke="None">
<path d="
M 49.00 124.00 
C 48.65 133.81 47.25 133.85 46.00 145.00 C 44.75 156.15 54.19 151.25 53.01 142.01 C 51.83 132.76 59.05 127.84 49.00 124.00 Z"/>
</g>
<g fill="#ECECEC" fill-opacity="1.00" stroke="None">
<path d="
M 98.00 141.00 
C 105.00 142.21 110.75 131.33 106.69 127.31 C 102.64 123.28 90.87 121.72 87.31 126.31 C 83.74 130.89 87.97 139.64 87.00 147.00 C 86.03 154.35 97.24 153.84 92.00 143.00
C 100.13 144.16 103.55 156.43 112.00 153.00
C 108.58 147.68 102.45 144.91 98.00 141.00
M 91.00 137.00 
C 87.00 130.06 95.18 122.89 101.74 128.26 C 108.30 133.62 96.49 139.71 91.00 137.00 Z"/>
</g>
<g fill="#F0F0F0" fill-opacity="1.00" stroke="None">
<path d="
M 114.00 152.00 
C 120.88 155.86 121.10 144.71 122.00 140.00 C 122.90 135.29 124.76 123.73 117.00 125.00
C 116.02 134.02 115.25 143.07 114.00 152.00 Z"/>
</g>
<g fill="#EFEFEF" fill-opacity="1.00" stroke="None">
<path d="
M 74.00 126.00 
C 57.48 120.42 51.24 149.74 67.25 152.60 C 83.25 155.47 88.39 130.86 74.00 126.00
M 78.00 145.00 
C 74.92 150.31 62.79 148.79 63.03 142.97 C 63.26 137.16 63.14 129.92 70.67 130.33 C 78.20 130.75 78.45 139.60 78.00 145.00 Z"/>
</g>
<g fill="#797979" fill-opacity="1.00" stroke="None">
<path d="
M 91.00 137.00 
C 96.49 139.71 108.30 133.62 101.74 128.26 C 95.18 122.89 87.00 130.06 91.00 137.00 Z"/>
</g>
<g fill="#373737" fill-opacity="1.00" stroke="None">
<path d="
M 151.00 137.00 
C 158.84 137.80 166.66 140.60 175.08 141.07 C 183.49 141.54 193.07 135.83 201.00 137.00
C 194.69 141.96 183.98 139.40 177.00 143.00
C 191.50 148.30 206.89 152.24 221.00 144.00
C 220.44 144.40 230.23 137.72 235.00 137.00
C 225.96 131.77 213.08 134.29 204.00 129.00
C 184.94 125.66 164.34 134.22 145.00 135.00
C 146.34 136.34 149.06 136.51 151.00 137.00 Z"/>
</g>
<g fill="#515151" fill-opacity="1.00" stroke="None">
<path d="
M 221.00 144.00 
C 224.29 142.83 227.72 142.21 231.00 141.00
C 235.71 138.36 241.81 137.14 247.00 135.00
C 243.11 132.85 237.73 133.38 233.00 133.00
C 223.61 132.25 213.17 131.10 204.00 129.00
C 213.08 134.29 225.96 131.77 235.00 137.00
C 230.23 137.72 220.44 144.40 221.00 144.00 Z"/>
</g>
<g fill="#7C7C7C" fill-opacity="1.00" stroke="None">
<path d="
M 78.00 145.00 
C 78.45 139.60 78.20 130.75 70.67 130.33 C 63.14 129.92 63.26 137.16 63.03 142.97 C 62.79 148.79 74.92 150.31 78.00 145.00 Z"/>
</g>
<g fill="#101010" fill-opacity="1.00" stroke="None">
<path d="
M 151.00 137.00 
C 157.81 138.71 164.67 140.79 171.00 143.00
C 172.64 143.57 173.12 143.52 175.00 143.00
C 172.70 146.14 173.10 148.35 173.00 151.00
C 173.08 151.87 172.85 155.44 174.00 157.00
C 174.18 157.24 177.64 160.64 178.00 161.00
C 180.12 163.10 182.29 163.11 185.00 164.00
C 188.26 165.07 191.26 166.75 195.00 166.00
C 195.35 161.79 200.92 160.85 204.00 160.00
C 198.16 157.79 206.73 152.60 210.01 153.01 C 213.29 153.41 219.65 150.22 222.00 148.00
C 223.14 146.93 223.34 144.20 226.03 144.03 C 228.71 143.85 230.20 143.16 232.00 142.00
C 231.78 141.70 231.34 141.01 231.00 141.00
C 227.72 142.21 224.29 142.83 221.00 144.00
C 206.89 152.24 191.50 148.30 177.00 143.00
C 183.98 139.40 194.69 141.96 201.00 137.00
C 193.07 135.83 183.49 141.54 175.08 141.07 C 166.66 140.60 158.84 137.80 151.00 137.00 Z"/>
</g>
<g fill="#747474" fill-opacity="1.00" stroke="None">
<path d="
M 222.00 148.00 
C 221.52 150.20 222.62 152.85 222.00 155.00
C 224.11 154.21 225.89 152.99 228.00 152.00
C 229.99 151.07 232.19 149.97 234.00 149.00
C 232.15 147.21 233.51 144.05 232.00 142.00
C 230.20 143.16 228.71 143.85 226.03 144.03 C 223.34 144.20 223.14 146.93 222.00 148.00 Z"/>
</g>
<g fill="#3E3E3E" fill-opacity="1.00" stroke="None">
<path d="
M 173.00 151.00 
C 173.10 148.35 172.70 146.14 175.00 143.00
C 173.12 143.52 172.64 143.57 171.00 143.00
C 171.72 144.06 172.63 149.78 173.00 151.00 Z"/>
</g>
<g fill="#E0E0E0" fill-opacity="1.00" stroke="None">
<path d="
M 234.00 149.00 
C 232.19 149.97 229.99 151.07 228.00 152.00
C 225.10 153.89 225.28 155.20 221.00 156.00
C 215.24 157.07 209.65 158.45 204.00 160.00
C 200.92 160.85 195.35 161.79 195.00 166.00
C 194.50 171.94 201.17 172.93 205.00 172.00
C 207.92 170.21 207.72 165.13 212.07 165.07 C 216.42 165.02 218.49 160.33 223.00 161.00
C 221.26 164.24 209.15 165.36 213.00 168.00
C 215.59 166.72 219.08 165.21 222.00 165.00
C 225.52 162.11 222.85 156.34 228.00 155.00
C 231.11 155.69 228.94 162.03 233.00 159.00
C 233.38 155.28 241.91 157.02 241.99 152.01 C 242.08 147.00 237.94 146.89 234.00 149.00 Z"/>
</g>
<g fill="#343434" fill-opacity="1.00" stroke="None">
<path d="
M 204.00 160.00 
C 209.65 158.45 215.24 157.07 221.00 156.00
C 221.24 155.94 221.65 155.13 222.00 155.00
C 222.62 152.85 221.52 150.20 222.00 148.00
C 219.65 150.22 213.29 153.41 210.01 153.01 C 206.73 152.60 198.16 157.79 204.00 160.00 Z"/>
</g>
<g fill="#989898" fill-opacity="1.00" stroke="None">
<path d="
M 222.00 155.00 
C 221.65 155.13 221.24 155.94 221.00 156.00
C 225.28 155.20 225.10 153.89 228.00 152.00
C 225.89 152.99 224.11 154.21 222.00 155.00 Z"/>
</g>
<g fill="#7C7C7C" fill-opacity="1.00" stroke="None">
<path d="
M 222.00 165.00 
C 224.62 164.82 226.65 165.46 229.00 166.00
C 230.45 165.68 230.45 163.72 233.00 164.00
C 233.25 163.92 233.76 163.25 234.00 163.00
C 234.22 162.76 234.85 161.07 235.00 161.00
C 233.00 160.46 233.97 159.59 233.00 159.00
C 228.94 162.03 231.11 155.69 228.00 155.00
C 222.85 156.34 225.52 162.11 222.00 165.00 Z"/>
</g>
<g fill="#939393" fill-opacity="1.00" stroke="None">
<path d="
M 173.00 162.00 
C 172.91 161.76 173.65 161.11 174.00 161.00
C 174.22 160.93 177.42 160.78 178.00 161.00
C 177.64 160.64 174.18 157.24 174.00 157.00
C 172.84 157.48 172.06 158.11 171.00 157.00
C 169.34 158.90 170.00 162.29 173.00 162.00 Z"/>
</g>
<g fill="#737373" fill-opacity="1.00" stroke="None">
<path d="
M 174.00 161.00 
C 175.95 161.43 176.01 163.67 177.00 165.00
C 179.42 166.15 183.36 163.90 185.00 164.00
C 182.29 163.11 180.12 163.10 178.00 161.00
C 177.42 160.78 174.22 160.93 174.00 161.00 Z"/>
</g>
<g fill="#B5B5B5" fill-opacity="1.00" stroke="None">
<path d="
M 205.00 172.00 
C 208.13 171.24 210.36 169.31 213.00 168.00
C 209.15 165.36 221.26 164.24 223.00 161.00
C 218.49 160.33 216.42 165.02 212.07 165.07 C 207.72 165.13 207.92 170.21 205.00 172.00 Z"/>
</g>
<g fill="#9C9C9C" fill-opacity="1.00" stroke="None">
<path d="
M 234.00 163.00 
C 237.73 163.00 241.62 163.32 245.00 162.00
C 242.70 159.58 238.11 161.84 235.00 161.00
C 234.85 161.07 234.22 162.76 234.00 163.00 Z"/>
</g>
<g fill="#BDBDBD" fill-opacity="1.00" stroke="None">
<path d="
M 229.00 166.00 
C 229.47 166.11 230.51 166.08 231.00 166.00
C 231.79 165.87 233.88 164.87 234.00 164.00
C 234.00 164.00 233.49 164.05 233.00 164.00
C 230.45 163.72 230.45 165.68 229.00 166.00 Z"/>
</g>
<g fill="#828282" fill-opacity="1.00" stroke="None">
<path d="
M 231.00 166.00 
C 232.26 167.66 235.17 167.09 237.00 168.00
C 236.97 165.80 235.91 164.40 234.00 164.00
C 233.88 164.87 231.79 165.87 231.00 166.00 Z"/>
</g>
</svg>