<svg xmlns="http://www.w3.org/2000/svg" xmlns:v="https://svgstorm.com"
viewBox = "0 0 250 175"
width="250"
height="175">
<g fill="None" fill-opacity="0.0" stroke="#512208" stroke-opacity="1.00" stroke-width="0.3"><path d="
M 0.00 175.00 
L 192.00 175.00
C 186.69 171.55 177.32 172.00 174.00 165.00
C 163.64 161.18 150.21 166.61 139.00 165.00 C 127.79 163.39 114.59 165.60 103.00 165.00 C 91.41 164.40 78.69 165.00 67.00 165.00
C 58.01 166.73 48.13 167.31 38.00 167.00 C 27.87 166.69 14.07 170.11 15.00 158.00 C 15.93 145.89 12.25 138.29 14.00 127.00 C 15.75 115.71 12.36 107.84 12.22 97.78 C 12.08 87.72 13.42 78.17 12.00 68.00 C 10.58 57.83 12.51 47.05 13.75 37.75 C 15.00 28.46 15.36 17.44 13.00 9.00
C 23.36 7.53 35.28 7.59 46.00 8.00 C 56.72 8.41 70.75 6.04 79.00 10.00
C 82.33 10.00 85.67 10.00 89.00 10.00
C 109.84 7.98 132.35 8.99 154.00 9.00 C 175.65 9.01 199.15 7.98 220.00 10.00
C 224.33 10.00 228.67 10.00 233.00 10.00
C 233.00 51.00 233.00 92.00 233.00 133.00
C 238.15 133.20 242.88 134.32 248.00 134.00
C 248.50 133.97 249.50 134.00 250.00 134.00
L 250.00 0.00
L 0.00 0.00
L 0.00 175.00 Z"/>
</g>
<g fill="None" fill-opacity="0.0" stroke="#391B0E" stroke-opacity="1.00" stroke-width="0.3"><path d="
M 67.00 165.00 
C 50.00 165.00 33.00 165.00 16.00 165.00
C 16.00 113.33 16.00 61.67 16.00 10.00
C 37.00 10.00 58.00 10.00 79.00 10.00
C 70.75 6.04 56.72 8.41 46.00 8.00 C 35.28 7.59 23.36 7.53 13.00 9.00
C 15.36 17.44 15.00 28.46 13.75 37.75 C 12.51 47.05 10.58 57.83 12.00 68.00 C 13.42 78.17 12.08 87.72 12.22 97.78 C 12.36 107.84 15.75 115.71 14.00 127.00 C 12.25 138.29 15.93 145.89 15.00 158.00 C 14.07 170.11 27.87 166.69 38.00 167.00 C 48.13 167.31 58.01 166.73 67.00 165.00 Z"/>
</g>
<g fill="None" fill-opacity="0.0" stroke="#372513" stroke-opacity="1.00" stroke-width="0.3"><path d="
M 89.00 10.00 
C 132.67 10.00 176.33 10.00 220.00 10.00
C 199.15 7.98 175.65 9.01 154.00 9.00 C 132.35 8.99 109.84 7.98 89.00 10.00 Z"/>
</g>
<g fill="None" fill-opacity="0.0" stroke="#3B8C4A" stroke-opacity="1.00" stroke-width="0.3"><path d="
M 67.00 165.00 
C 78.69 165.00 91.41 164.40 103.00 165.00 C 114.59 165.60 127.79 163.39 139.00 165.00 C 150.21 166.61 163.64 161.18 174.00 165.00
C 173.58 164.12 173.65 162.91 173.00 162.00
C 172.43 161.21 170.76 160.54 170.00 160.00
C 169.80 157.66 172.93 156.62 172.00 154.00
C 172.90 149.75 172.35 144.34 169.00 142.00
C 161.23 141.14 154.11 135.88 146.00 136.00
C 151.48 132.10 162.36 133.64 170.00 132.00 C 177.65 130.36 185.76 130.18 193.00 127.00
C 205.41 125.49 220.12 132.51 233.00 133.00
C 233.00 92.00 233.00 51.00 233.00 10.00
C 228.67 10.00 224.33 10.00 220.00 10.00
C 176.33 10.00 132.67 10.00 89.00 10.00
C 85.67 10.00 82.33 10.00 79.00 10.00
C 58.00 10.00 37.00 10.00 16.00 10.00
C 16.00 61.67 16.00 113.33 16.00 165.00
C 33.00 165.00 50.00 165.00 67.00 165.00
M 56.00 24.00 
C 56.92 25.42 55.01 28.94 58.00 30.00
C 54.64 33.58 48.89 35.07 51.00 41.00
C 49.67 41.00 48.33 41.00 47.00 41.00
C 46.01 42.29 46.50 40.87 47.00 42.00
C 47.60 43.35 46.13 45.61 45.00 47.00
C 45.94 46.44 46.81 45.84 48.00 46.00
C 43.04 50.07 47.42 52.42 43.00 56.00
C 43.82 56.36 45.43 57.11 46.00 58.00
C 43.82 59.12 42.10 57.50 40.00 59.00
C 40.24 60.67 42.85 59.17 43.00 61.00
C 43.70 62.12 41.71 62.83 45.00 64.00
C 43.38 64.35 40.45 66.07 42.00 68.00
C 46.12 66.50 54.81 68.71 60.00 68.00
C 60.52 67.93 70.90 66.21 71.00 66.00
C 69.14 55.70 75.14 47.76 80.25 41.25 C 85.37 34.75 98.40 33.96 104.00 40.00
C 101.90 43.22 105.27 45.60 105.00 49.00
C 98.49 51.81 92.88 67.65 82.00 61.00
C 80.01 78.62 98.91 63.97 107.00 63.00
C 108.20 58.17 109.52 49.85 113.90 46.90 C 118.28 43.95 123.87 35.53 130.02 37.02 C 136.18 38.52 142.04 37.59 146.00 43.00
C 138.24 51.23 138.04 63.87 135.00 74.00
C 131.92 73.89 130.02 73.26 127.00 74.00
C 125.41 72.03 126.20 69.34 126.00 67.00
C 126.23 66.50 123.53 69.33 123.00 70.00
C 117.96 76.39 106.93 72.37 107.00 64.00
C 103.34 68.73 92.42 72.55 88.00 77.00
C 82.91 74.48 75.87 77.99 73.00 71.00
C 71.74 70.28 70.55 69.75 69.00 70.00
C 70.43 73.11 64.66 75.34 62.00 77.00
C 61.57 74.06 57.91 76.08 57.00 74.00
C 42.51 74.65 30.29 82.91 17.00 76.00
C 18.82 72.32 23.30 71.92 27.00 72.00
C 28.23 62.41 31.74 53.34 34.00 44.00
C 35.52 40.09 36.78 37.67 39.00 34.00
C 41.16 30.43 43.06 23.34 46.00 18.00
C 49.29 20.08 53.11 21.69 56.00 24.00
M 199.00 48.00 
C 199.74 47.07 199.58 45.05 202.00 46.00
C 198.77 43.98 205.08 37.62 208.00 38.00
C 211.18 35.86 213.97 35.54 219.00 40.00
C 218.06 51.85 212.46 62.44 212.00 75.00
C 199.26 74.62 204.47 59.90 204.00 53.00
C 203.56 59.47 193.51 59.77 193.23 65.23 C 192.95 70.69 185.16 78.24 180.77 72.23 C 176.38 66.22 183.65 55.88 183.98 50.97 C 184.30 46.07 184.96 32.84 192.01 34.01 C 199.06 35.18 191.37 50.47 193.00 55.00
C 194.92 52.07 197.66 49.93 199.00 48.00
M 175.00 35.00 
C 177.36 36.34 178.14 39.23 181.00 40.00
C 180.38 46.70 179.09 47.86 178.80 54.25 C 178.51 60.64 167.00 52.45 170.00 48.00
C 165.84 48.74 165.02 54.22 163.67 57.67 C 162.32 61.13 155.22 60.21 161.00 63.00
C 153.77 61.28 153.83 77.61 147.97 75.02 C 142.12 72.43 143.23 62.39 147.00 60.00
C 147.17 52.74 144.29 47.20 151.25 39.25 C 158.22 31.31 161.82 46.96 157.00 54.00
C 165.03 48.24 166.49 39.40 175.00 35.00
M 155.00 82.00 
C 160.56 83.83 156.79 92.62 151.00 90.00 C 145.21 87.37 149.77 80.29 155.00 82.00
M 190.00 92.00 
C 205.77 79.92 214.50 118.36 196.00 113.00
C 197.70 107.80 195.54 92.51 190.70 99.70 C 185.85 106.89 192.61 115.67 180.00 113.00
C 179.61 102.81 180.32 92.93 181.00 83.00
C 187.86 81.07 191.88 85.15 190.00 92.00
M 140.00 111.00 
C 138.50 113.03 136.67 113.48 134.00 113.00
C 128.20 111.97 128.41 104.08 126.00 100.00
C 123.22 103.72 123.00 109.18 120.00 113.00
C 105.35 114.54 109.24 93.38 104.00 84.00
C 114.36 80.66 117.10 91.08 117.00 99.00
C 120.79 94.01 119.30 82.00 129.00 84.00
C 130.21 88.14 131.49 93.23 135.00 96.00
C 135.53 89.26 138.19 81.22 147.00 84.00
C 147.15 93.68 141.11 101.62 140.00 111.00
M 173.00 84.00 
C 172.31 87.61 173.18 92.38 178.00 91.00
C 178.47 94.26 178.15 98.20 174.00 98.00
C 174.00 103.00 174.00 108.00 174.00 113.00
C 171.00 113.00 168.00 113.00 165.00 113.00
C 165.00 108.00 165.00 103.00 165.00 98.00
C 161.07 97.55 160.43 94.70 161.00 91.00
C 166.01 92.58 165.02 87.14 165.00 84.00
C 167.67 84.00 170.33 84.00 173.00 84.00
M 159.00 112.00 
C 155.67 112.00 152.33 112.00 149.00 112.00
C 149.00 105.00 149.00 98.00 149.00 91.00
C 162.75 87.45 156.57 104.30 159.00 112.00
M 149.00 127.00 
C 144.78 131.72 140.88 135.20 137.00 140.00
C 143.28 142.70 150.91 144.87 155.00 151.00
C 147.47 154.10 142.13 144.57 135.00 143.00
C 135.60 147.88 135.39 154.39 129.00 154.00
C 126.22 145.02 128.18 139.70 126.00 130.00 C 123.82 120.29 135.40 126.74 134.00 135.00
C 139.69 133.14 144.62 117.31 149.00 127.00
M 40.00 130.00 
C 32.74 122.71 22.62 134.85 33.03 134.97 C 43.43 135.10 45.36 144.10 39.75 149.75 C 34.13 155.39 24.52 152.89 22.00 146.00
C 23.91 144.22 28.40 144.67 28.00 148.00
C 32.60 148.95 37.35 146.76 38.00 142.00
C 32.34 139.92 20.86 135.98 23.93 128.92 C 27.00 121.87 43.23 121.94 40.00 130.00
M 98.00 141.00 
C 102.45 144.91 108.58 147.68 112.00 153.00
C 103.55 156.43 100.13 144.16 92.00 143.00
C 96.98 153.93 86.48 154.17 87.07 146.93 C 87.67 139.68 83.83 130.80 87.31 126.31 C 90.79 121.81 102.61 123.14 106.69 127.31 C 110.78 131.47 104.66 142.17 98.00 141.00
M 49.00 125.00 
C 59.38 126.76 51.62 133.70 53.01 142.01 C 54.39 150.31 45.22 156.60 46.00 146.00 C 46.78 135.40 48.63 134.26 49.00 125.00
M 114.00 152.00 
C 115.25 143.07 116.02 134.02 117.00 125.00
C 125.16 123.83 122.34 135.16 122.00 140.00 C 121.66 144.84 120.91 155.85 114.00 152.00
M 74.00 126.00 
C 88.37 130.85 83.28 155.37 67.26 152.60 C 51.23 149.83 57.86 120.55 74.00 126.00 Z"/>
</g>
<g fill="None" fill-opacity="0.0" stroke="#E7EFE8" stroke-opacity="1.00" stroke-width="0.3"><path d="
M 39.00 34.00 
C 40.39 39.58 46.75 33.10 50.00 35.00
C 48.95 31.96 45.74 29.97 51.00 32.00
C 50.78 28.85 49.85 25.24 53.00 29.00
C 52.04 26.24 54.82 25.49 56.00 24.00
C 53.11 21.69 49.29 20.08 46.00 18.00
C 43.06 23.34 41.16 30.43 39.00 34.00 Z"/>
</g>
<g fill="None" fill-opacity="0.0" stroke="#BFD5C2" stroke-opacity="1.00" stroke-width="0.3"><path d="
M 39.00 34.00 
C 36.78 37.67 35.52 40.09 34.00 44.00
C 35.40 41.52 38.45 38.99 41.00 38.00
C 39.65 40.05 38.30 41.96 37.00 44.00
C 39.18 45.66 41.85 49.77 37.00 48.00
C 37.60 50.31 40.13 50.03 42.00 50.00
C 42.53 48.20 44.15 48.04 45.00 47.00
C 46.13 45.61 47.60 43.35 47.00 42.00
C 46.55 42.87 41.30 43.18 40.00 42.00
C 41.71 39.11 47.78 33.44 49.00 39.00
C 48.17 39.41 47.13 39.97 47.00 41.00
C 48.33 41.00 49.67 41.00 51.00 41.00
C 48.89 35.07 54.64 33.58 58.00 30.00
C 55.01 28.94 56.92 25.42 56.00 24.00
C 54.82 25.49 52.04 26.24 53.00 29.00
C 49.85 25.24 50.78 28.85 51.00 32.00
C 45.74 29.97 48.95 31.96 50.00 35.00
C 46.75 33.10 40.39 39.58 39.00 34.00 Z"/>
</g>
<g fill="None" fill-opacity="0.0" stroke="#EBF1EC" stroke-opacity="1.00" stroke-width="0.3"><path d="
M 208.00 38.00 
C 207.52 38.91 204.82 43.04 205.00 46.00
C 202.57 39.51 203.69 49.54 199.00 48.00
C 197.66 49.93 194.92 52.07 193.00 55.00
C 191.37 50.47 199.06 35.18 192.01 34.01 C 184.96 32.84 184.30 46.07 183.98 50.97 C 183.65 55.88 176.38 66.22 180.77 72.23 C 185.16 78.24 192.95 70.69 193.23 65.23 C 193.51 59.77 203.56 59.47 204.00 53.00
C 204.47 59.90 199.26 74.62 212.00 75.00
C 212.46 62.44 218.06 51.85 219.00 40.00
C 213.97 35.54 211.18 35.86 208.00 38.00 Z"/>
</g>
<g fill="None" fill-opacity="0.0" stroke="#EBF1EC" stroke-opacity="1.00" stroke-width="0.3"><path d="
M 71.00 66.00 
C 71.19 67.07 72.31 69.70 73.00 71.00
C 75.87 77.99 82.91 74.48 88.00 77.00
C 92.42 72.55 103.34 68.73 107.00 64.00
C 106.93 72.37 117.96 76.39 123.00 70.00
C 120.86 71.52 121.48 67.24 124.00 69.00
C 120.69 64.78 125.56 65.38 124.00 60.00
C 127.56 60.04 127.17 65.60 126.00 67.00
C 126.20 69.34 125.41 72.03 127.00 74.00
C 130.02 73.26 131.92 73.89 135.00 74.00
C 138.04 63.87 138.24 51.23 146.00 43.00
C 142.04 37.59 136.18 38.52 130.02 37.02 C 123.87 35.53 118.28 43.95 113.90 46.90 C 109.52 49.85 108.20 58.17 107.00 63.00
C 98.91 63.97 80.01 78.62 82.00 61.00
C 92.88 67.65 98.49 51.81 105.00 49.00
C 105.27 45.60 101.90 43.22 104.00 40.00
C 98.40 33.96 85.37 34.75 80.25 41.25 C 75.14 47.76 69.14 55.70 71.00 66.00
M 98.00 45.00 
C 97.08 51.76 88.47 55.23 83.00 57.00
C 83.93 50.13 91.01 46.40 97.00 44.00
C 97.11 43.03 98.17 41.39 99.00 41.00
C 98.72 42.28 99.76 44.50 98.00 45.00
M 133.00 43.00 
C 130.77 53.48 121.61 58.62 116.00 68.00
C 114.76 58.68 122.69 45.41 133.00 43.00 Z"/>
</g>
<g fill="None" fill-opacity="0.0" stroke="#E7EFE8" stroke-opacity="1.00" stroke-width="0.3"><path d="
M 175.00 35.00 
C 166.49 39.40 165.03 48.24 157.00 54.00
C 161.82 46.96 158.22 31.31 151.25 39.25 C 144.29 47.20 147.17 52.74 147.00 60.00
C 143.23 62.39 142.12 72.43 147.97 75.02 C 153.83 77.61 153.77 61.28 161.00 63.00
C 155.22 60.21 162.32 61.13 163.67 57.67 C 165.02 54.22 165.84 48.74 170.00 48.00
C 167.00 52.45 178.51 60.64 178.80 54.25 C 179.09 47.86 180.38 46.70 181.00 40.00
C 178.14 39.23 177.36 36.34 175.00 35.00 Z"/>
</g>
<g fill="None" fill-opacity="0.0" stroke="#EBF1EC" stroke-opacity="1.00" stroke-width="0.3"><path d="
M 47.00 42.00 
C 46.50 40.87 46.01 42.29 47.00 41.00
C 47.13 39.97 48.17 39.41 49.00 39.00
C 47.78 33.44 41.71 39.11 40.00 42.00
C 41.30 43.18 46.55 42.87 47.00 42.00 Z"/>
</g>
<g fill="None" fill-opacity="0.0" stroke="#E8EFE9" stroke-opacity="1.00" stroke-width="0.3"><path d="
M 34.00 44.00 
C 31.74 53.34 28.23 62.41 27.00 72.00
C 23.30 71.92 18.82 72.32 17.00 76.00
C 30.29 82.91 42.51 74.65 57.00 74.00
C 58.84 73.92 60.47 73.97 62.00 75.00
C 61.77 71.46 64.86 71.25 67.00 69.00
C 65.59 66.65 62.86 67.33 65.00 70.00
C 62.23 71.18 62.45 67.62 60.00 68.00
C 54.81 68.71 46.12 66.50 42.00 68.00
C 41.73 68.57 40.69 69.69 40.00 70.00
C 38.68 70.60 35.35 68.03 34.00 71.00
C 32.07 68.09 36.70 67.13 34.00 64.00
C 36.94 65.82 37.72 62.31 40.00 61.00
C 31.72 63.03 37.66 57.54 33.00 54.00
C 35.86 51.77 35.75 57.51 39.00 55.00
C 38.19 53.45 35.53 51.73 40.00 51.00
C 41.40 52.29 40.21 55.46 43.00 55.00
C 42.82 53.70 41.68 51.08 42.00 50.00
C 40.13 50.03 37.60 50.31 37.00 48.00
C 41.85 49.77 39.18 45.66 37.00 44.00
C 38.30 41.96 39.65 40.05 41.00 38.00
C 38.45 38.99 35.40 41.52 34.00 44.00 Z"/>
</g>
<g fill="None" fill-opacity="0.0" stroke="#97BC9C" stroke-opacity="1.00" stroke-width="0.3"><path d="
M 199.00 48.00 
C 203.69 49.54 202.57 39.51 205.00 46.00
C 204.82 43.04 207.52 38.91 208.00 38.00
C 205.08 37.62 198.77 43.98 202.00 46.00
C 199.58 45.05 199.74 47.07 199.00 48.00 Z"/>
</g>
<g fill="None" fill-opacity="0.0" stroke="#A5C5AA" stroke-opacity="1.00" stroke-width="0.3"><path d="
M 97.00 44.00 
C 97.34 44.02 98.04 44.69 98.00 45.00
C 99.76 44.50 98.72 42.28 99.00 41.00
C 98.17 41.39 97.11 43.03 97.00 44.00 Z"/>
</g>
<g fill="None" fill-opacity="0.0" stroke="#449151" stroke-opacity="1.00" stroke-width="0.3"><path d="
M 133.00 43.00 
C 122.69 45.41 114.76 58.68 116.00 68.00
C 121.61 58.62 130.77 53.48 133.00 43.00 Z"/>
</g>
<g fill="None" fill-opacity="0.0" stroke="#469253" stroke-opacity="1.00" stroke-width="0.3"><path d="
M 98.00 45.00 
C 98.04 44.69 97.34 44.02 97.00 44.00
C 91.01 46.40 83.93 50.13 83.00 57.00
C 88.47 55.23 97.08 51.76 98.00 45.00 Z"/>
</g>
<g fill="None" fill-opacity="0.0" stroke="#89B48F" stroke-opacity="1.00" stroke-width="0.3"><path d="
M 45.00 47.00 
C 44.15 48.04 42.53 48.20 42.00 50.00
C 41.68 51.08 42.82 53.70 43.00 55.00
C 43.07 55.49 43.00 56.00 43.00 56.00
C 47.42 52.42 43.04 50.07 48.00 46.00
C 46.81 45.84 45.94 46.44 45.00 47.00 Z"/>
</g>
<g fill="None" fill-opacity="0.0" stroke="#C5D9C8" stroke-opacity="1.00" stroke-width="0.3"><path d="
M 40.00 70.00 
C 40.80 69.95 36.86 65.82 36.00 67.00
C 37.83 64.67 39.44 61.31 43.00 61.00
C 42.85 59.17 40.24 60.67 40.00 59.00
C 42.10 57.50 43.82 59.12 46.00 58.00
C 45.43 57.11 43.82 56.36 43.00 56.00
C 43.00 56.00 43.07 55.49 43.00 55.00
C 40.21 55.46 41.40 52.29 40.00 51.00
C 35.53 51.73 38.19 53.45 39.00 55.00
C 35.75 57.51 35.86 51.77 33.00 54.00
C 37.66 57.54 31.72 63.03 40.00 61.00
C 37.72 62.31 36.94 65.82 34.00 64.00
C 36.70 67.13 32.07 68.09 34.00 71.00
C 35.35 68.03 38.68 70.60 40.00 70.00 Z"/>
</g>
<g fill="None" fill-opacity="0.0" stroke="#90B897" stroke-opacity="1.00" stroke-width="0.3"><path d="
M 123.00 70.00 
C 123.53 69.33 126.23 66.50 126.00 67.00
C 127.17 65.60 127.56 60.04 124.00 60.00
C 125.56 65.38 120.69 64.78 124.00 69.00
C 121.48 67.24 120.86 71.52 123.00 70.00 Z"/>
</g>
<g fill="None" fill-opacity="0.0" stroke="#7EAE86" stroke-opacity="1.00" stroke-width="0.3"><path d="
M 40.00 70.00 
C 40.69 69.69 41.73 68.57 42.00 68.00
C 40.45 66.07 43.38 64.35 45.00 64.00
C 41.71 62.83 43.70 62.12 43.00 61.00
C 39.44 61.31 37.83 64.67 36.00 67.00
C 36.86 65.82 40.80 69.95 40.00 70.00
M 41.00 64.00 
C 40.96 63.96 40.06 66.50 39.25 65.59 C 38.43 64.67 40.37 63.37 41.00 64.00 Z"/>
</g>
<g fill="None" fill-opacity="0.0" stroke="#4C9459" stroke-opacity="1.00" stroke-width="0.3"><path d="
M 41.00 64.00 
C 40.37 63.37 38.43 64.67 39.25 65.59 C 40.06 66.50 40.96 63.96 41.00 64.00 Z"/>
</g>
<g fill="None" fill-opacity="0.0" stroke="#88B48F" stroke-opacity="1.00" stroke-width="0.3"><path d="
M 60.00 68.00 
C 62.45 67.62 62.23 71.18 65.00 70.00
C 62.86 67.33 65.59 66.65 67.00 69.00
C 64.86 71.25 61.77 71.46 62.00 75.00
C 60.47 73.97 58.84 73.92 57.00 74.00
C 57.91 76.08 61.57 74.06 62.00 77.00
C 64.66 75.34 70.43 73.11 69.00 70.00
C 70.55 69.75 71.74 70.28 73.00 71.00
C 72.31 69.70 71.19 67.07 71.00 66.00
C 70.90 66.21 60.52 67.93 60.00 68.00 Z"/>
</g>
<g fill="None" fill-opacity="0.0" stroke="#D8E5DA" stroke-opacity="1.00" stroke-width="0.3"><path d="
M 155.00 82.00 
C 149.77 80.29 145.21 87.37 151.00 90.00 C 156.79 92.62 160.56 83.83 155.00 82.00 Z"/>
</g>
<g fill="None" fill-opacity="0.0" stroke="#D1E0D3" stroke-opacity="1.00" stroke-width="0.3"><path d="
M 190.00 92.00 
C 191.88 85.15 187.86 81.07 181.00 83.00
C 180.32 92.93 179.61 102.81 180.00 113.00
C 192.61 115.67 185.85 106.89 190.70 99.70 C 195.54 92.51 197.70 107.80 196.00 113.00
C 214.50 118.36 205.77 79.92 190.00 92.00
M 188.00 102.00 
C 183.31 106.52 182.36 99.23 188.00 102.00 Z"/>
</g>
<g fill="None" fill-opacity="0.0" stroke="#D6E4D8" stroke-opacity="1.00" stroke-width="0.3"><path d="
M 134.00 113.00 
C 135.02 112.84 136.31 109.71 135.00 109.00
C 136.89 108.94 138.29 110.42 140.00 111.00
C 141.11 101.62 147.15 93.68 147.00 84.00
C 138.19 81.22 135.53 89.26 135.00 96.00
C 131.49 93.23 130.21 88.14 129.00 84.00
C 119.30 82.00 120.79 94.01 117.00 99.00
C 117.10 91.08 114.36 80.66 104.00 84.00
C 109.24 93.38 105.35 114.54 120.00 113.00
C 123.00 109.18 123.22 103.72 126.00 100.00
C 128.41 104.08 128.20 111.97 134.00 113.00
M 142.00 99.00 
C 141.02 101.33 140.88 102.59 139.00 103.00
C 138.31 100.28 136.35 101.37 136.00 99.00
C 138.38 99.06 139.71 99.95 142.00 99.00 Z"/>
</g>
<g fill="None" fill-opacity="0.0" stroke="#DFEAE1" stroke-opacity="1.00" stroke-width="0.3"><path d="
M 173.00 84.00 
C 170.33 84.00 167.67 84.00 165.00 84.00
C 165.02 87.14 166.01 92.58 161.00 91.00
C 160.43 94.70 161.07 97.55 165.00 98.00
C 165.00 103.00 165.00 108.00 165.00 113.00
C 168.00 113.00 171.00 113.00 174.00 113.00
C 174.00 108.00 174.00 103.00 174.00 98.00
C 178.15 98.20 178.47 94.26 178.00 91.00
C 173.18 92.38 172.31 87.61 173.00 84.00 Z"/>
</g>
<g fill="None" fill-opacity="0.0" stroke="#DCE7DD" stroke-opacity="1.00" stroke-width="0.3"><path d="
M 159.00 112.00 
C 156.57 104.30 162.75 87.45 149.00 91.00
C 149.00 98.00 149.00 105.00 149.00 112.00
C 152.33 112.00 155.67 112.00 159.00 112.00
M 155.00 93.00 
C 150.40 95.88 151.56 97.95 157.00 98.00
C 158.61 103.13 154.67 105.58 150.00 105.00
C 150.84 102.63 156.36 102.31 151.00 102.00
C 153.91 99.74 146.13 92.69 155.00 93.00 Z"/>
</g>
<g fill="None" fill-opacity="0.0" stroke="#AAC8AE" stroke-opacity="1.00" stroke-width="0.3"><path d="
M 155.00 93.00 
C 146.13 92.69 153.91 99.74 151.00 102.00
C 156.36 102.31 150.84 102.63 150.00 105.00
C 154.67 105.58 158.61 103.13 157.00 98.00
C 151.56 97.95 150.40 95.88 155.00 93.00 Z"/>
</g>
<g fill="None" fill-opacity="0.0" stroke="#82B189" stroke-opacity="1.00" stroke-width="0.3"><path d="
M 142.00 99.00 
C 139.71 99.95 138.38 99.06 136.00 99.00
C 136.35 101.37 138.31 100.28 139.00 103.00
C 140.88 102.59 141.02 101.33 142.00 99.00 Z"/>
</g>
<g fill="None" fill-opacity="0.0" stroke="#7EAE85" stroke-opacity="1.00" stroke-width="0.3"><path d="
M 188.00 102.00 
C 182.36 99.23 183.31 106.52 188.00 102.00 Z"/>
</g>
<g fill="None" fill-opacity="0.0" stroke="#8BB692" stroke-opacity="1.00" stroke-width="0.3"><path d="
M 134.00 113.00 
C 136.67 113.48 138.50 113.03 140.00 111.00
C 138.29 110.42 136.89 108.94 135.00 109.00
C 136.31 109.71 135.02 112.84 134.00 113.00 Z"/>
</g>
<g fill="None" fill-opacity="0.0" stroke="#EAF0EA" stroke-opacity="1.00" stroke-width="0.3"><path d="
M 149.00 127.00 
C 144.62 117.31 139.69 133.14 134.00 135.00
C 135.40 126.74 123.82 120.29 126.00 130.00 C 128.18 139.70 126.22 145.02 129.00 154.00
C 135.39 154.39 135.60 147.88 135.00 143.00
C 142.13 144.57 147.47 154.10 155.00 151.00
C 150.91 144.87 143.28 142.70 137.00 140.00
C 140.88 135.20 144.78 131.72 149.00 127.00 Z"/>
</g>
<g fill="None" fill-opacity="0.0" stroke="#E9F0EA" stroke-opacity="1.00" stroke-width="0.3"><path d="
M 40.00 130.00 
C 43.23 121.94 27.00 121.87 23.93 128.92 C 20.86 135.98 32.34 139.92 38.00 142.00
C 37.35 146.76 32.60 148.95 28.00 148.00
C 28.40 144.67 23.91 144.22 22.00 146.00
C 24.52 152.89 34.13 155.39 39.75 149.75 C 45.36 144.10 43.43 135.10 33.03 134.97 C 22.62 134.85 32.74 122.71 40.00 130.00 Z"/>
</g>
<g fill="None" fill-opacity="0.0" stroke="#E9F0EA" stroke-opacity="1.00" stroke-width="0.3"><path d="
M 98.00 141.00 
C 104.66 142.17 110.78 131.47 106.69 127.31 C 102.61 123.14 90.79 121.81 87.31 126.31 C 83.83 130.80 87.67 139.68 87.07 146.93 C 86.48 154.17 96.98 153.93 92.00 143.00
C 100.13 144.16 103.55 156.43 112.00 153.00
C 108.58 147.68 102.45 144.91 98.00 141.00
M 91.00 137.00 
C 87.77 130.54 94.20 122.37 101.23 127.77 C 108.26 133.17 97.47 139.91 91.00 137.00 Z"/>
</g>
<g fill="None" fill-opacity="0.0" stroke="#ECF2EC" stroke-opacity="1.00" stroke-width="0.3"><path d="
M 49.00 125.00 
C 48.63 134.26 46.78 135.40 46.00 146.00 C 45.22 156.60 54.39 150.31 53.01 142.01 C 51.62 133.70 59.38 126.76 49.00 125.00 Z"/>
</g>
<g fill="None" fill-opacity="0.0" stroke="#EBF1EB" stroke-opacity="1.00" stroke-width="0.3"><path d="
M 114.00 152.00 
C 120.91 155.85 121.66 144.84 122.00 140.00 C 122.34 135.16 125.16 123.83 117.00 125.00
C 116.02 134.02 115.25 143.07 114.00 152.00 Z"/>
</g>
<g fill="None" fill-opacity="0.0" stroke="#EEF3EE" stroke-opacity="1.00" stroke-width="0.3"><path d="
M 74.00 126.00 
C 57.86 120.55 51.23 149.83 67.26 152.60 C 83.28 155.37 88.37 130.85 74.00 126.00
M 78.00 145.00 
C 74.28 151.00 62.30 148.16 63.01 141.99 C 63.72 135.82 62.79 130.08 70.67 130.33 C 78.55 130.59 78.17 139.72 78.00 145.00 Z"/>
</g>
<g fill="None" fill-opacity="0.0" stroke="#3F8F4E" stroke-opacity="1.00" stroke-width="0.3"><path d="
M 91.00 137.00 
C 97.47 139.91 108.26 133.17 101.23 127.77 C 94.20 122.37 87.77 130.54 91.00 137.00 Z"/>
</g>
<g fill="None" fill-opacity="0.0" stroke="#333433" stroke-opacity="1.00" stroke-width="0.3"><path d="
M 169.00 142.00 
C 173.01 142.45 176.14 142.83 181.00 144.00
C 179.96 143.63 177.81 142.95 177.00 142.00
C 186.88 142.18 197.04 149.82 206.67 146.67 C 216.31 143.53 226.23 142.51 234.00 136.00
C 220.65 132.23 205.53 132.14 193.00 127.00
C 185.76 130.18 177.65 130.36 170.00 132.00 C 162.36 133.64 151.48 132.10 146.00 136.00
C 154.11 135.88 161.23 141.14 169.00 142.00 Z"/>
</g>
<g fill="None" fill-opacity="0.0" stroke="#4C4C49" stroke-opacity="1.00" stroke-width="0.3"><path d="
M 181.00 144.00 
C 192.76 146.82 204.00 150.25 215.67 145.67 C 227.34 141.10 237.19 139.51 248.00 134.00
C 242.88 134.32 238.15 133.20 233.00 133.00
C 220.12 132.51 205.41 125.49 193.00 127.00
C 205.53 132.14 220.65 132.23 234.00 136.00
C 226.23 142.51 216.31 143.53 206.67 146.67 C 197.04 149.82 186.88 142.18 177.00 142.00
C 177.81 142.95 179.96 143.63 181.00 144.00 Z"/>
</g>
<g fill="None" fill-opacity="0.0" stroke="#41904F" stroke-opacity="1.00" stroke-width="0.3"><path d="
M 78.00 145.00 
C 78.17 139.72 78.55 130.59 70.67 130.33 C 62.79 130.08 63.72 135.82 63.01 141.99 C 62.30 148.16 74.28 151.00 78.00 145.00 Z"/>
</g>
<g fill="None" fill-opacity="0.0" stroke="#0C0D0F" stroke-opacity="1.00" stroke-width="0.3"><path d="
M 181.00 144.00 
C 176.14 142.83 173.01 142.45 169.00 142.00
C 172.35 144.34 172.90 149.75 172.00 154.00
C 174.87 154.49 176.05 159.07 178.00 161.00
C 180.05 161.61 182.88 164.61 185.00 165.00
C 186.91 165.00 189.12 164.69 191.00 165.00
C 195.32 163.47 189.32 154.79 193.00 151.00
C 196.49 152.64 197.71 148.60 199.00 153.00
C 206.58 150.07 215.58 151.82 222.00 146.00
C 225.52 144.02 229.15 143.46 233.00 142.00
C 238.42 139.95 244.17 136.83 250.00 135.00
L 250.00 134.00
C 249.50 134.00 248.50 133.97 248.00 134.00
C 237.19 139.51 227.34 141.10 215.67 145.67 C 204.00 150.25 192.76 146.82 181.00 144.00 Z"/>
</g>
<g fill="None" fill-opacity="0.0" stroke="#54240A" stroke-opacity="1.00" stroke-width="0.3"><path d="
M 233.00 142.00 
C 231.98 144.18 234.06 147.85 233.00 150.00
C 237.26 147.55 241.70 146.30 241.99 152.01 C 242.28 157.72 230.87 155.40 233.00 161.00
C 233.50 160.99 234.50 161.00 235.00 161.00
C 236.66 161.00 238.34 160.94 240.00 161.00
C 241.66 161.06 243.34 160.95 245.00 161.00
C 243.30 163.48 239.77 162.99 237.00 163.00
C 236.00 162.97 235.00 163.00 234.00 163.00
C 233.50 163.00 233.00 163.00 233.00 163.00
C 232.97 163.02 233.65 163.87 234.00 164.00
C 235.70 164.63 237.12 165.63 237.00 168.00
C 235.40 167.44 232.97 167.50 232.00 166.00
C 230.64 165.67 228.98 165.27 228.00 165.00
C 227.11 164.75 224.88 164.03 224.00 164.00
C 221.00 163.89 213.00 167.52 210.00 169.00
C 208.19 169.90 207.35 171.35 205.00 172.00
C 202.16 172.79 201.01 172.81 198.31 171.69 C 195.60 170.58 196.53 166.91 195.00 166.00
C 194.84 165.90 191.00 165.00 191.00 165.00
C 189.12 164.69 186.91 165.00 185.00 165.00
C 183.18 165.00 178.54 165.87 177.00 165.00
C 182.04 172.80 192.42 170.44 199.00 175.00
L 250.00 175.00
L 250.00 135.00
C 244.17 136.83 238.42 139.95 233.00 142.00 Z"/>
</g>
<g fill="None" fill-opacity="0.0" stroke="#3C8A49" stroke-opacity="1.00" stroke-width="0.3"><path d="
M 222.00 146.00 
C 224.19 147.64 222.72 151.32 222.00 153.00
C 222.00 153.50 222.22 154.63 222.00 155.00
C 223.13 154.62 225.02 154.46 226.00 154.00
C 226.26 153.88 226.67 153.17 227.00 153.00
C 229.01 151.96 231.05 151.12 233.00 150.00
C 234.06 147.85 231.98 144.18 233.00 142.00
C 229.15 143.46 225.52 144.02 222.00 146.00 Z"/>
</g>
<g fill="None" fill-opacity="0.0" stroke="#242728" stroke-opacity="1.00" stroke-width="0.3"><path d="
M 191.00 165.00 
C 191.00 165.00 194.84 165.90 195.00 166.00
C 198.82 164.77 194.92 161.82 201.07 161.07 C 207.23 160.33 213.66 156.33 220.00 156.00
C 220.37 155.88 221.35 155.22 222.00 155.00
C 222.22 154.63 222.00 153.50 222.00 153.00
C 222.00 150.67 222.00 148.33 222.00 146.00
C 215.58 151.82 206.58 150.07 199.00 153.00
C 197.71 148.60 196.49 152.64 193.00 151.00
C 189.32 154.79 195.32 163.47 191.00 165.00 Z"/>
</g>
<g fill="None" fill-opacity="0.0" stroke="#33653F" stroke-opacity="1.00" stroke-width="0.3"><path d="
M 222.00 153.00 
C 222.72 151.32 224.19 147.64 222.00 146.00
C 222.00 148.33 222.00 150.67 222.00 153.00 Z"/>
</g>
<g fill="None" fill-opacity="0.0" stroke="#D8DAD8" stroke-opacity="1.00" stroke-width="0.3"><path d="
M 233.00 150.00 
C 231.05 151.12 229.01 151.96 227.00 153.00
C 227.42 153.06 228.77 155.61 229.00 156.00
C 229.59 157.02 229.53 157.79 230.00 159.00
C 230.71 160.83 230.59 161.06 233.00 161.00
C 230.87 155.40 242.28 157.72 241.99 152.01 C 241.70 146.30 237.26 147.55 233.00 150.00 Z"/>
</g>
<g fill="None" fill-opacity="0.0" stroke="#F9A689" stroke-opacity="1.00" stroke-width="0.3"><path d="
M 226.00 154.00 
C 225.96 154.62 225.14 155.68 223.00 156.00
C 222.92 156.08 223.88 156.74 224.00 157.00
C 225.25 157.33 228.47 155.72 229.00 156.00
C 228.77 155.61 227.42 153.06 227.00 153.00
C 226.67 153.17 226.26 153.88 226.00 154.00 Z"/>
</g>
<g fill="None" fill-opacity="0.0" stroke="#9F9F50" stroke-opacity="1.00" stroke-width="0.3"><path d="
M 173.00 162.00 
C 173.33 161.00 174.09 161.11 175.00 161.00
C 175.73 160.91 177.30 160.79 178.00 161.00
C 176.05 159.07 174.87 154.49 172.00 154.00
C 172.93 156.62 169.80 157.66 170.00 160.00
C 170.76 160.54 172.43 161.21 173.00 162.00
M 173.00 157.00 
C 173.97 161.12 170.36 158.76 173.00 157.00 Z"/>
</g>
<g fill="None" fill-opacity="0.0" stroke="#ED5420" stroke-opacity="1.00" stroke-width="0.3"><path d="
M 222.00 155.00 
C 221.35 155.22 220.37 155.88 220.00 156.00
C 220.98 155.95 222.03 156.14 223.00 156.00
C 225.14 155.68 225.96 154.62 226.00 154.00
C 225.02 154.46 223.13 154.62 222.00 155.00 Z"/>
</g>
<g fill="None" fill-opacity="0.0" stroke="#E1E1E1" stroke-opacity="1.00" stroke-width="0.3"><path d="
M 195.00 166.00 
C 196.53 166.91 195.60 170.58 198.31 171.69 C 201.01 172.81 202.16 172.79 205.00 172.00
C 207.92 170.21 207.72 165.13 212.07 165.07 C 216.42 165.02 218.49 160.33 223.00 161.00
C 220.03 164.85 210.30 164.87 210.00 169.00
C 213.00 167.52 221.00 163.89 224.00 164.00
C 222.92 163.01 223.84 163.43 224.00 162.00
C 224.12 160.89 224.45 158.00 224.00 157.00
C 223.88 156.74 222.92 156.08 223.00 156.00
C 222.03 156.14 220.98 155.95 220.00 156.00
C 213.66 156.33 207.23 160.33 201.07 161.07 C 194.92 161.82 198.82 164.77 195.00 166.00 Z"/>
</g>
<g fill="None" fill-opacity="0.0" stroke="#F85530" stroke-opacity="1.00" stroke-width="0.3"><path d="
M 224.00 157.00 
C 224.45 158.00 224.12 160.89 224.00 162.00
C 224.82 160.86 228.57 158.59 230.00 159.00
C 229.53 157.79 229.59 157.02 229.00 156.00
C 228.47 155.72 225.25 157.33 224.00 157.00 Z"/>
</g>
<g fill="None" fill-opacity="0.0" stroke="#4B6440" stroke-opacity="1.00" stroke-width="0.3"><path d="
M 173.00 157.00 
C 170.36 158.76 173.97 161.12 173.00 157.00 Z"/>
</g>
<g fill="None" fill-opacity="0.0" stroke="#C82A17" stroke-opacity="1.00" stroke-width="0.3"><path d="
M 224.00 162.00 
C 223.84 163.43 222.92 163.01 224.00 164.00
C 224.88 164.03 227.11 164.75 228.00 165.00
C 230.92 164.75 230.69 161.34 233.00 163.00
C 233.00 163.00 233.50 163.00 234.00 163.00
C 234.45 162.78 234.69 161.18 235.00 161.00
C 234.50 161.00 233.50 160.99 233.00 161.00
C 230.59 161.06 230.71 160.83 230.00 159.00
C 228.57 158.59 224.82 160.86 224.00 162.00 Z"/>
</g>
<g fill="None" fill-opacity="0.0" stroke="#33322F" stroke-opacity="1.00" stroke-width="0.3"><path d="
M 173.00 162.00 
C 173.65 162.91 173.58 164.12 174.00 165.00
C 177.32 172.00 186.69 171.55 192.00 175.00
L 199.00 175.00
C 192.42 170.44 182.04 172.80 177.00 165.00
C 176.59 164.37 175.62 161.18 175.00 161.00
C 174.09 161.11 173.33 161.00 173.00 162.00 Z"/>
</g>
<g fill="None" fill-opacity="0.0" stroke="#3D8849" stroke-opacity="1.00" stroke-width="0.3"><path d="
M 177.00 165.00 
C 178.54 165.87 183.18 165.00 185.00 165.00
C 182.88 164.61 180.05 161.61 178.00 161.00
C 177.30 160.79 175.73 160.91 175.00 161.00
C 175.62 161.18 176.59 164.37 177.00 165.00 Z"/>
</g>
<g fill="None" fill-opacity="0.0" stroke="#B3B3B5" stroke-opacity="1.00" stroke-width="0.3"><path d="
M 205.00 172.00 
C 207.35 171.35 208.19 169.90 210.00 169.00
C 210.30 164.87 220.03 164.85 223.00 161.00
C 218.49 160.33 216.42 165.02 212.07 165.07 C 207.72 165.13 207.92 170.21 205.00 172.00 Z"/>
</g>
<g fill="None" fill-opacity="0.0" stroke="#F09878" stroke-opacity="1.00" stroke-width="0.3"><path d="
M 234.00 163.00 
C 235.00 163.00 236.00 162.97 237.00 163.00
C 237.59 162.88 239.46 161.13 240.00 161.00
C 238.34 160.94 236.66 161.00 235.00 161.00
C 234.69 161.18 234.45 162.78 234.00 163.00 Z"/>
</g>
<g fill="None" fill-opacity="0.0" stroke="#EC5129" stroke-opacity="1.00" stroke-width="0.3"><path d="
M 237.00 163.00 
C 239.77 162.99 243.30 163.48 245.00 161.00
C 243.34 160.95 241.66 161.06 240.00 161.00
C 239.46 161.13 237.59 162.88 237.00 163.00 Z"/>
</g>
<g fill="None" fill-opacity="0.0" stroke="#CE956F" stroke-opacity="1.00" stroke-width="0.3"><path d="
M 228.00 165.00 
C 228.98 165.27 230.64 165.67 232.00 166.00
C 232.17 165.95 234.13 164.50 234.00 164.00
C 233.65 163.87 232.97 163.02 233.00 163.00
C 230.69 161.34 230.92 164.75 228.00 165.00 Z"/>
</g>
<g fill="None" fill-opacity="0.0" stroke="#DE5123" stroke-opacity="1.00" stroke-width="0.3"><path d="
M 232.00 166.00 
C 232.97 167.50 235.40 167.44 237.00 168.00
C 237.12 165.63 235.70 164.63 234.00 164.00
C 234.13 164.50 232.17 165.95 232.00 166.00 Z"/>
</g>
<g fill="#512208" fill-opacity="1.00" stroke="None">
<path d="
M 0.00 175.00 
L 192.00 175.00
C 186.69 171.55 177.32 172.00 174.00 165.00
C 163.64 161.18 150.21 166.61 139.00 165.00 C 127.79 163.39 114.59 165.60 103.00 165.00 C 91.41 164.40 78.69 165.00 67.00 165.00
C 58.01 166.73 48.13 167.31 38.00 167.00 C 27.87 166.69 14.07 170.11 15.00 158.00 C 15.93 145.89 12.25 138.29 14.00 127.00 C 15.75 115.71 12.36 107.84 12.22 97.78 C 12.08 87.72 13.42 78.17 12.00 68.00 C 10.58 57.83 12.51 47.05 13.75 37.75 C 15.00 28.46 15.36 17.44 13.00 9.00
C 23.36 7.53 35.28 7.59 46.00 8.00 C 56.72 8.41 70.75 6.04 79.00 10.00
C 82.33 10.00 85.67 10.00 89.00 10.00
C 109.84 7.98 132.35 8.99 154.00 9.00 C 175.65 9.01 199.15 7.98 220.00 10.00
C 224.33 10.00 228.67 10.00 233.00 10.00
C 233.00 51.00 233.00 92.00 233.00 133.00
C 238.15 133.20 242.88 134.32 248.00 134.00
C 248.50 133.97 249.50 134.00 250.00 134.00
L 250.00 0.00
L 0.00 0.00
L 0.00 175.00 Z"/>
</g>
<g fill="#391B0E" fill-opacity="1.00" stroke="None">
<path d="
M 67.00 165.00 
C 50.00 165.00 33.00 165.00 16.00 165.00
C 16.00 113.33 16.00 61.67 16.00 10.00
C 37.00 10.00 58.00 10.00 79.00 10.00
C 70.75 6.04 56.72 8.41 46.00 8.00 C 35.28 7.59 23.36 7.53 13.00 9.00
C 15.36 17.44 15.00 28.46 13.75 37.75 C 12.51 47.05 10.58 57.83 12.00 68.00 C 13.42 78.17 12.08 87.72 12.22 97.78 C 12.36 107.84 15.75 115.71 14.00 127.00 C 12.25 138.29 15.93 145.89 15.00 158.00 C 14.07 170.11 27.87 166.69 38.00 167.00 C 48.13 167.31 58.01 166.73 67.00 165.00 Z"/>
</g>
<g fill="#372513" fill-opacity="1.00" stroke="None">
<path d="
M 89.00 10.00 
C 132.67 10.00 176.33 10.00 220.00 10.00
C 199.15 7.98 175.65 9.01 154.00 9.00 C 132.35 8.99 109.84 7.98 89.00 10.00 Z"/>
</g>
<g fill="#3B8C4A" fill-opacity="1.00" stroke="None">
<path d="
M 67.00 165.00 
C 78.69 165.00 91.41 164.40 103.00 165.00 C 114.59 165.60 127.79 163.39 139.00 165.00 C 150.21 166.61 163.64 161.18 174.00 165.00
C 173.58 164.12 173.65 162.91 173.00 162.00
C 172.43 161.21 170.76 160.54 170.00 160.00
C 169.80 157.66 172.93 156.62 172.00 154.00
C 172.90 149.75 172.35 144.34 169.00 142.00
C 161.23 141.14 154.11 135.88 146.00 136.00
C 151.48 132.10 162.36 133.64 170.00 132.00 C 177.65 130.36 185.76 130.18 193.00 127.00
C 205.41 125.49 220.12 132.51 233.00 133.00
C 233.00 92.00 233.00 51.00 233.00 10.00
C 228.67 10.00 224.33 10.00 220.00 10.00
C 176.33 10.00 132.67 10.00 89.00 10.00
C 85.67 10.00 82.33 10.00 79.00 10.00
C 58.00 10.00 37.00 10.00 16.00 10.00
C 16.00 61.67 16.00 113.33 16.00 165.00
C 33.00 165.00 50.00 165.00 67.00 165.00
M 56.00 24.00 
C 56.92 25.42 55.01 28.94 58.00 30.00
C 54.64 33.58 48.89 35.07 51.00 41.00
C 49.67 41.00 48.33 41.00 47.00 41.00
C 46.01 42.29 46.50 40.87 47.00 42.00
C 47.60 43.35 46.13 45.61 45.00 47.00
C 45.94 46.44 46.81 45.84 48.00 46.00
C 43.04 50.07 47.42 52.42 43.00 56.00
C 43.82 56.36 45.43 57.11 46.00 58.00
C 43.82 59.12 42.10 57.50 40.00 59.00
C 40.24 60.67 42.85 59.17 43.00 61.00
C 43.70 62.12 41.71 62.83 45.00 64.00
C 43.38 64.35 40.45 66.07 42.00 68.00
C 46.12 66.50 54.81 68.71 60.00 68.00
C 60.52 67.93 70.90 66.21 71.00 66.00
C 69.14 55.70 75.14 47.76 80.25 41.25 C 85.37 34.75 98.40 33.96 104.00 40.00
C 101.90 43.22 105.27 45.60 105.00 49.00
C 98.49 51.81 92.88 67.65 82.00 61.00
C 80.01 78.62 98.91 63.97 107.00 63.00
C 108.20 58.17 109.52 49.85 113.90 46.90 C 118.28 43.95 123.87 35.53 130.02 37.02 C 136.18 38.52 142.04 37.59 146.00 43.00
C 138.24 51.23 138.04 63.87 135.00 74.00
C 131.92 73.89 130.02 73.26 127.00 74.00
C 125.41 72.03 126.20 69.34 126.00 67.00
C 126.23 66.50 123.53 69.33 123.00 70.00
C 117.96 76.39 106.93 72.37 107.00 64.00
C 103.34 68.73 92.42 72.55 88.00 77.00
C 82.91 74.48 75.87 77.99 73.00 71.00
C 71.74 70.28 70.55 69.75 69.00 70.00
C 70.43 73.11 64.66 75.34 62.00 77.00
C 61.57 74.06 57.91 76.08 57.00 74.00
C 42.51 74.65 30.29 82.91 17.00 76.00
C 18.82 72.32 23.30 71.92 27.00 72.00
C 28.23 62.41 31.74 53.34 34.00 44.00
C 35.52 40.09 36.78 37.67 39.00 34.00
C 41.16 30.43 43.06 23.34 46.00 18.00
C 49.29 20.08 53.11 21.69 56.00 24.00
M 199.00 48.00 
C 199.74 47.07 199.58 45.05 202.00 46.00
C 198.77 43.98 205.08 37.62 208.00 38.00
C 211.18 35.86 213.97 35.54 219.00 40.00
C 218.06 51.85 212.46 62.44 212.00 75.00
C 199.26 74.62 204.47 59.90 204.00 53.00
C 203.56 59.47 193.51 59.77 193.23 65.23 C 192.95 70.69 185.16 78.24 180.77 72.23 C 176.38 66.22 183.65 55.88 183.98 50.97 C 184.30 46.07 184.96 32.84 192.01 34.01 C 199.06 35.18 191.37 50.47 193.00 55.00
C 194.92 52.07 197.66 49.93 199.00 48.00
M 175.00 35.00 
C 177.36 36.34 178.14 39.23 181.00 40.00
C 180.38 46.70 179.09 47.86 178.80 54.25 C 178.51 60.64 167.00 52.45 170.00 48.00
C 165.84 48.74 165.02 54.22 163.67 57.67 C 162.32 61.13 155.22 60.21 161.00 63.00
C 153.77 61.28 153.83 77.61 147.97 75.02 C 142.12 72.43 143.23 62.39 147.00 60.00
C 147.17 52.74 144.29 47.20 151.25 39.25 C 158.22 31.31 161.82 46.96 157.00 54.00
C 165.03 48.24 166.49 39.40 175.00 35.00
M 155.00 82.00 
C 160.56 83.83 156.79 92.62 151.00 90.00 C 145.21 87.37 149.77 80.29 155.00 82.00
M 190.00 92.00 
C 205.77 79.92 214.50 118.36 196.00 113.00
C 197.70 107.80 195.54 92.51 190.70 99.70 C 185.85 106.89 192.61 115.67 180.00 113.00
C 179.61 102.81 180.32 92.93 181.00 83.00
C 187.86 81.07 191.88 85.15 190.00 92.00
M 140.00 111.00 
C 138.50 113.03 136.67 113.48 134.00 113.00
C 128.20 111.97 128.41 104.08 126.00 100.00
C 123.22 103.72 123.00 109.18 120.00 113.00
C 105.35 114.54 109.24 93.38 104.00 84.00
C 114.36 80.66 117.10 91.08 117.00 99.00
C 120.79 94.01 119.30 82.00 129.00 84.00
C 130.21 88.14 131.49 93.23 135.00 96.00
C 135.53 89.26 138.19 81.22 147.00 84.00
C 147.15 93.68 141.11 101.62 140.00 111.00
M 173.00 84.00 
C 172.31 87.61 173.18 92.38 178.00 91.00
C 178.47 94.26 178.15 98.20 174.00 98.00
C 174.00 103.00 174.00 108.00 174.00 113.00
C 171.00 113.00 168.00 113.00 165.00 113.00
C 165.00 108.00 165.00 103.00 165.00 98.00
C 161.07 97.55 160.43 94.70 161.00 91.00
C 166.01 92.58 165.02 87.14 165.00 84.00
C 167.67 84.00 170.33 84.00 173.00 84.00
M 159.00 112.00 
C 155.67 112.00 152.33 112.00 149.00 112.00
C 149.00 105.00 149.00 98.00 149.00 91.00
C 162.75 87.45 156.57 104.30 159.00 112.00
M 149.00 127.00 
C 144.78 131.72 140.88 135.20 137.00 140.00
C 143.28 142.70 150.91 144.87 155.00 151.00
C 147.47 154.10 142.13 144.57 135.00 143.00
C 135.60 147.88 135.39 154.39 129.00 154.00
C 126.22 145.02 128.18 139.70 126.00 130.00 C 123.82 120.29 135.40 126.74 134.00 135.00
C 139.69 133.14 144.62 117.31 149.00 127.00
M 40.00 130.00 
C 32.74 122.71 22.62 134.85 33.03 134.97 C 43.43 135.10 45.36 144.10 39.75 149.75 C 34.13 155.39 24.52 152.89 22.00 146.00
C 23.91 144.22 28.40 144.67 28.00 148.00
C 32.60 148.95 37.35 146.76 38.00 142.00
C 32.34 139.92 20.86 135.98 23.93 128.92 C 27.00 121.87 43.23 121.94 40.00 130.00
M 98.00 141.00 
C 102.45 144.91 108.58 147.68 112.00 153.00
C 103.55 156.43 100.13 144.16 92.00 143.00
C 96.98 153.93 86.48 154.17 87.07 146.93 C 87.67 139.68 83.83 130.80 87.31 126.31 C 90.79 121.81 102.61 123.14 106.69 127.31 C 110.78 131.47 104.66 142.17 98.00 141.00
M 49.00 125.00 
C 59.38 126.76 51.62 133.70 53.01 142.01 C 54.39 150.31 45.22 156.60 46.00 146.00 C 46.78 135.40 48.63 134.26 49.00 125.00
M 114.00 152.00 
C 115.25 143.07 116.02 134.02 117.00 125.00
C 125.16 123.83 122.34 135.16 122.00 140.00 C 121.66 144.84 120.91 155.85 114.00 152.00
M 74.00 126.00 
C 88.37 130.85 83.28 155.37 67.26 152.60 C 51.23 149.83 57.86 120.55 74.00 126.00 Z"/>
</g>
<g fill="#E7EFE8" fill-opacity="1.00" stroke="None">
<path d="
M 39.00 34.00 
C 40.39 39.58 46.75 33.10 50.00 35.00
C 48.95 31.96 45.74 29.97 51.00 32.00
C 50.78 28.85 49.85 25.24 53.00 29.00
C 52.04 26.24 54.82 25.49 56.00 24.00
C 53.11 21.69 49.29 20.08 46.00 18.00
C 43.06 23.34 41.16 30.43 39.00 34.00 Z"/>
</g>
<g fill="#BFD5C2" fill-opacity="1.00" stroke="None">
<path d="
M 39.00 34.00 
C 36.78 37.67 35.52 40.09 34.00 44.00
C 35.40 41.52 38.45 38.99 41.00 38.00
C 39.65 40.05 38.30 41.96 37.00 44.00
C 39.18 45.66 41.85 49.77 37.00 48.00
C 37.60 50.31 40.13 50.03 42.00 50.00
C 42.53 48.20 44.15 48.04 45.00 47.00
C 46.13 45.61 47.60 43.35 47.00 42.00
C 46.55 42.87 41.30 43.18 40.00 42.00
C 41.71 39.11 47.78 33.44 49.00 39.00
C 48.17 39.41 47.13 39.97 47.00 41.00
C 48.33 41.00 49.67 41.00 51.00 41.00
C 48.89 35.07 54.64 33.58 58.00 30.00
C 55.01 28.94 56.92 25.42 56.00 24.00
C 54.82 25.49 52.04 26.24 53.00 29.00
C 49.85 25.24 50.78 28.85 51.00 32.00
C 45.74 29.97 48.95 31.96 50.00 35.00
C 46.75 33.10 40.39 39.58 39.00 34.00 Z"/>
</g>
<g fill="#EBF1EC" fill-opacity="1.00" stroke="None">
<path d="
M 208.00 38.00 
C 207.52 38.91 204.82 43.04 205.00 46.00
C 202.57 39.51 203.69 49.54 199.00 48.00
C 197.66 49.93 194.92 52.07 193.00 55.00
C 191.37 50.47 199.06 35.18 192.01 34.01 C 184.96 32.84 184.30 46.07 183.98 50.97 C 183.65 55.88 176.38 66.22 180.77 72.23 C 185.16 78.24 192.95 70.69 193.23 65.23 C 193.51 59.77 203.56 59.47 204.00 53.00
C 204.47 59.90 199.26 74.62 212.00 75.00
C 212.46 62.44 218.06 51.85 219.00 40.00
C 213.97 35.54 211.18 35.86 208.00 38.00 Z"/>
</g>
<g fill="#EBF1EC" fill-opacity="1.00" stroke="None">
<path d="
M 71.00 66.00 
C 71.19 67.07 72.31 69.70 73.00 71.00
C 75.87 77.99 82.91 74.48 88.00 77.00
C 92.42 72.55 103.34 68.73 107.00 64.00
C 106.93 72.37 117.96 76.39 123.00 70.00
C 120.86 71.52 121.48 67.24 124.00 69.00
C 120.69 64.78 125.56 65.38 124.00 60.00
C 127.56 60.04 127.17 65.60 126.00 67.00
C 126.20 69.34 125.41 72.03 127.00 74.00
C 130.02 73.26 131.92 73.89 135.00 74.00
C 138.04 63.87 138.24 51.23 146.00 43.00
C 142.04 37.59 136.18 38.52 130.02 37.02 C 123.87 35.53 118.28 43.95 113.90 46.90 C 109.52 49.85 108.20 58.17 107.00 63.00
C 98.91 63.97 80.01 78.62 82.00 61.00
C 92.88 67.65 98.49 51.81 105.00 49.00
C 105.27 45.60 101.90 43.22 104.00 40.00
C 98.40 33.96 85.37 34.75 80.25 41.25 C 75.14 47.76 69.14 55.70 71.00 66.00
M 98.00 45.00 
C 97.08 51.76 88.47 55.23 83.00 57.00
C 83.93 50.13 91.01 46.40 97.00 44.00
C 97.11 43.03 98.17 41.39 99.00 41.00
C 98.72 42.28 99.76 44.50 98.00 45.00
M 133.00 43.00 
C 130.77 53.48 121.61 58.62 116.00 68.00
C 114.76 58.68 122.69 45.41 133.00 43.00 Z"/>
</g>
<g fill="#E7EFE8" fill-opacity="1.00" stroke="None">
<path d="
M 175.00 35.00 
C 166.49 39.40 165.03 48.24 157.00 54.00
C 161.82 46.96 158.22 31.31 151.25 39.25 C 144.29 47.20 147.17 52.74 147.00 60.00
C 143.23 62.39 142.12 72.43 147.97 75.02 C 153.83 77.61 153.77 61.28 161.00 63.00
C 155.22 60.21 162.32 61.13 163.67 57.67 C 165.02 54.22 165.84 48.74 170.00 48.00
C 167.00 52.45 178.51 60.64 178.80 54.25 C 179.09 47.86 180.38 46.70 181.00 40.00
C 178.14 39.23 177.36 36.34 175.00 35.00 Z"/>
</g>
<g fill="#EBF1EC" fill-opacity="1.00" stroke="None">
<path d="
M 47.00 42.00 
C 46.50 40.87 46.01 42.29 47.00 41.00
C 47.13 39.97 48.17 39.41 49.00 39.00
C 47.78 33.44 41.71 39.11 40.00 42.00
C 41.30 43.18 46.55 42.87 47.00 42.00 Z"/>
</g>
<g fill="#E8EFE9" fill-opacity="1.00" stroke="None">
<path d="
M 34.00 44.00 
C 31.74 53.34 28.23 62.41 27.00 72.00
C 23.30 71.92 18.82 72.32 17.00 76.00
C 30.29 82.91 42.51 74.65 57.00 74.00
C 58.84 73.92 60.47 73.97 62.00 75.00
C 61.77 71.46 64.86 71.25 67.00 69.00
C 65.59 66.65 62.86 67.33 65.00 70.00
C 62.23 71.18 62.45 67.62 60.00 68.00
C 54.81 68.71 46.12 66.50 42.00 68.00
C 41.73 68.57 40.69 69.69 40.00 70.00
C 38.68 70.60 35.35 68.03 34.00 71.00
C 32.07 68.09 36.70 67.13 34.00 64.00
C 36.94 65.82 37.72 62.31 40.00 61.00
C 31.72 63.03 37.66 57.54 33.00 54.00
C 35.86 51.77 35.75 57.51 39.00 55.00
C 38.19 53.45 35.53 51.73 40.00 51.00
C 41.40 52.29 40.21 55.46 43.00 55.00
C 42.82 53.70 41.68 51.08 42.00 50.00
C 40.13 50.03 37.60 50.31 37.00 48.00
C 41.85 49.77 39.18 45.66 37.00 44.00
C 38.30 41.96 39.65 40.05 41.00 38.00
C 38.45 38.99 35.40 41.52 34.00 44.00 Z"/>
</g>
<g fill="#97BC9C" fill-opacity="1.00" stroke="None">
<path d="
M 199.00 48.00 
C 203.69 49.54 202.57 39.51 205.00 46.00
C 204.82 43.04 207.52 38.91 208.00 38.00
C 205.08 37.62 198.77 43.98 202.00 46.00
C 199.58 45.05 199.74 47.07 199.00 48.00 Z"/>
</g>
<g fill="#A5C5AA" fill-opacity="1.00" stroke="None">
<path d="
M 97.00 44.00 
C 97.34 44.02 98.04 44.69 98.00 45.00
C 99.76 44.50 98.72 42.28 99.00 41.00
C 98.17 41.39 97.11 43.03 97.00 44.00 Z"/>
</g>
<g fill="#449151" fill-opacity="1.00" stroke="None">
<path d="
M 133.00 43.00 
C 122.69 45.41 114.76 58.68 116.00 68.00
C 121.61 58.62 130.77 53.48 133.00 43.00 Z"/>
</g>
<g fill="#469253" fill-opacity="1.00" stroke="None">
<path d="
M 98.00 45.00 
C 98.04 44.69 97.34 44.02 97.00 44.00
C 91.01 46.40 83.93 50.13 83.00 57.00
C 88.47 55.23 97.08 51.76 98.00 45.00 Z"/>
</g>
<g fill="#89B48F" fill-opacity="1.00" stroke="None">
<path d="
M 45.00 47.00 
C 44.15 48.04 42.53 48.20 42.00 50.00
C 41.68 51.08 42.82 53.70 43.00 55.00
C 43.07 55.49 43.00 56.00 43.00 56.00
C 47.42 52.42 43.04 50.07 48.00 46.00
C 46.81 45.84 45.94 46.44 45.00 47.00 Z"/>
</g>
<g fill="#C5D9C8" fill-opacity="1.00" stroke="None">
<path d="
M 40.00 70.00 
C 40.80 69.95 36.86 65.82 36.00 67.00
C 37.83 64.67 39.44 61.31 43.00 61.00
C 42.85 59.17 40.24 60.67 40.00 59.00
C 42.10 57.50 43.82 59.12 46.00 58.00
C 45.43 57.11 43.82 56.36 43.00 56.00
C 43.00 56.00 43.07 55.49 43.00 55.00
C 40.21 55.46 41.40 52.29 40.00 51.00
C 35.53 51.73 38.19 53.45 39.00 55.00
C 35.75 57.51 35.86 51.77 33.00 54.00
C 37.66 57.54 31.72 63.03 40.00 61.00
C 37.72 62.31 36.94 65.82 34.00 64.00
C 36.70 67.13 32.07 68.09 34.00 71.00
C 35.35 68.03 38.68 70.60 40.00 70.00 Z"/>
</g>
<g fill="#90B897" fill-opacity="1.00" stroke="None">
<path d="
M 123.00 70.00 
C 123.53 69.33 126.23 66.50 126.00 67.00
C 127.17 65.60 127.56 60.04 124.00 60.00
C 125.56 65.38 120.69 64.78 124.00 69.00
C 121.48 67.24 120.86 71.52 123.00 70.00 Z"/>
</g>
<g fill="#7EAE86" fill-opacity="1.00" stroke="None">
<path d="
M 40.00 70.00 
C 40.69 69.69 41.73 68.57 42.00 68.00
C 40.45 66.07 43.38 64.35 45.00 64.00
C 41.71 62.83 43.70 62.12 43.00 61.00
C 39.44 61.31 37.83 64.67 36.00 67.00
C 36.86 65.82 40.80 69.95 40.00 70.00
M 41.00 64.00 
C 40.96 63.96 40.06 66.50 39.25 65.59 C 38.43 64.67 40.37 63.37 41.00 64.00 Z"/>
</g>
<g fill="#4C9459" fill-opacity="1.00" stroke="None">
<path d="
M 41.00 64.00 
C 40.37 63.37 38.43 64.67 39.25 65.59 C 40.06 66.50 40.96 63.96 41.00 64.00 Z"/>
</g>
<g fill="#88B48F" fill-opacity="1.00" stroke="None">
<path d="
M 60.00 68.00 
C 62.45 67.62 62.23 71.18 65.00 70.00
C 62.86 67.33 65.59 66.65 67.00 69.00
C 64.86 71.25 61.77 71.46 62.00 75.00
C 60.47 73.97 58.84 73.92 57.00 74.00
C 57.91 76.08 61.57 74.06 62.00 77.00
C 64.66 75.34 70.43 73.11 69.00 70.00
C 70.55 69.75 71.74 70.28 73.00 71.00
C 72.31 69.70 71.19 67.07 71.00 66.00
C 70.90 66.21 60.52 67.93 60.00 68.00 Z"/>
</g>
<g fill="#D8E5DA" fill-opacity="1.00" stroke="None">
<path d="
M 155.00 82.00 
C 149.77 80.29 145.21 87.37 151.00 90.00 C 156.79 92.62 160.56 83.83 155.00 82.00 Z"/>
</g>
<g fill="#D1E0D3" fill-opacity="1.00" stroke="None">
<path d="
M 190.00 92.00 
C 191.88 85.15 187.86 81.07 181.00 83.00
C 180.32 92.93 179.61 102.81 180.00 113.00
C 192.61 115.67 185.85 106.89 190.70 99.70 C 195.54 92.51 197.70 107.80 196.00 113.00
C 214.50 118.36 205.77 79.92 190.00 92.00
M 188.00 102.00 
C 183.31 106.52 182.36 99.23 188.00 102.00 Z"/>
</g>
<g fill="#D6E4D8" fill-opacity="1.00" stroke="None">
<path d="
M 134.00 113.00 
C 135.02 112.84 136.31 109.71 135.00 109.00
C 136.89 108.94 138.29 110.42 140.00 111.00
C 141.11 101.62 147.15 93.68 147.00 84.00
C 138.19 81.22 135.53 89.26 135.00 96.00
C 131.49 93.23 130.21 88.14 129.00 84.00
C 119.30 82.00 120.79 94.01 117.00 99.00
C 117.10 91.08 114.36 80.66 104.00 84.00
C 109.24 93.38 105.35 114.54 120.00 113.00
C 123.00 109.18 123.22 103.72 126.00 100.00
C 128.41 104.08 128.20 111.97 134.00 113.00
M 142.00 99.00 
C 141.02 101.33 140.88 102.59 139.00 103.00
C 138.31 100.28 136.35 101.37 136.00 99.00
C 138.38 99.06 139.71 99.95 142.00 99.00 Z"/>
</g>
<g fill="#DFEAE1" fill-opacity="1.00" stroke="None">
<path d="
M 173.00 84.00 
C 170.33 84.00 167.67 84.00 165.00 84.00
C 165.02 87.14 166.01 92.58 161.00 91.00
C 160.43 94.70 161.07 97.55 165.00 98.00
C 165.00 103.00 165.00 108.00 165.00 113.00
C 168.00 113.00 171.00 113.00 174.00 113.00
C 174.00 108.00 174.00 103.00 174.00 98.00
C 178.15 98.20 178.47 94.26 178.00 91.00
C 173.18 92.38 172.31 87.61 173.00 84.00 Z"/>
</g>
<g fill="#DCE7DD" fill-opacity="1.00" stroke="None">
<path d="
M 159.00 112.00 
C 156.57 104.30 162.75 87.45 149.00 91.00
C 149.00 98.00 149.00 105.00 149.00 112.00
C 152.33 112.00 155.67 112.00 159.00 112.00
M 155.00 93.00 
C 150.40 95.88 151.56 97.95 157.00 98.00
C 158.61 103.13 154.67 105.58 150.00 105.00
C 150.84 102.63 156.36 102.31 151.00 102.00
C 153.91 99.74 146.13 92.69 155.00 93.00 Z"/>
</g>
<g fill="#AAC8AE" fill-opacity="1.00" stroke="None">
<path d="
M 155.00 93.00 
C 146.13 92.69 153.91 99.74 151.00 102.00
C 156.36 102.31 150.84 102.63 150.00 105.00
C 154.67 105.58 158.61 103.13 157.00 98.00
C 151.56 97.95 150.40 95.88 155.00 93.00 Z"/>
</g>
<g fill="#82B189" fill-opacity="1.00" stroke="None">
<path d="
M 142.00 99.00 
C 139.71 99.95 138.38 99.06 136.00 99.00
C 136.35 101.37 138.31 100.28 139.00 103.00
C 140.88 102.59 141.02 101.33 142.00 99.00 Z"/>
</g>
<g fill="#7EAE85" fill-opacity="1.00" stroke="None">
<path d="
M 188.00 102.00 
C 182.36 99.23 183.31 106.52 188.00 102.00 Z"/>
</g>
<g fill="#8BB692" fill-opacity="1.00" stroke="None">
<path d="
M 134.00 113.00 
C 136.67 113.48 138.50 113.03 140.00 111.00
C 138.29 110.42 136.89 108.94 135.00 109.00
C 136.31 109.71 135.02 112.84 134.00 113.00 Z"/>
</g>
<g fill="#EAF0EA" fill-opacity="1.00" stroke="None">
<path d="
M 149.00 127.00 
C 144.62 117.31 139.69 133.14 134.00 135.00
C 135.40 126.74 123.82 120.29 126.00 130.00 C 128.18 139.70 126.22 145.02 129.00 154.00
C 135.39 154.39 135.60 147.88 135.00 143.00
C 142.13 144.57 147.47 154.10 155.00 151.00
C 150.91 144.87 143.28 142.70 137.00 140.00
C 140.88 135.20 144.78 131.72 149.00 127.00 Z"/>
</g>
<g fill="#E9F0EA" fill-opacity="1.00" stroke="None">
<path d="
M 40.00 130.00 
C 43.23 121.94 27.00 121.87 23.93 128.92 C 20.86 135.98 32.34 139.92 38.00 142.00
C 37.35 146.76 32.60 148.95 28.00 148.00
C 28.40 144.67 23.91 144.22 22.00 146.00
C 24.52 152.89 34.13 155.39 39.75 149.75 C 45.36 144.10 43.43 135.10 33.03 134.97 C 22.62 134.85 32.74 122.71 40.00 130.00 Z"/>
</g>
<g fill="#E9F0EA" fill-opacity="1.00" stroke="None">
<path d="
M 98.00 141.00 
C 104.66 142.17 110.78 131.47 106.69 127.31 C 102.61 123.14 90.79 121.81 87.31 126.31 C 83.83 130.80 87.67 139.68 87.07 146.93 C 86.48 154.17 96.98 153.93 92.00 143.00
C 100.13 144.16 103.55 156.43 112.00 153.00
C 108.58 147.68 102.45 144.91 98.00 141.00
M 91.00 137.00 
C 87.77 130.54 94.20 122.37 101.23 127.77 C 108.26 133.17 97.47 139.91 91.00 137.00 Z"/>
</g>
<g fill="#ECF2EC" fill-opacity="1.00" stroke="None">
<path d="
M 49.00 125.00 
C 48.63 134.26 46.78 135.40 46.00 146.00 C 45.22 156.60 54.39 150.31 53.01 142.01 C 51.62 133.70 59.38 126.76 49.00 125.00 Z"/>
</g>
<g fill="#EBF1EB" fill-opacity="1.00" stroke="None">
<path d="
M 114.00 152.00 
C 120.91 155.85 121.66 144.84 122.00 140.00 C 122.34 135.16 125.16 123.83 117.00 125.00
C 116.02 134.02 115.25 143.07 114.00 152.00 Z"/>
</g>
<g fill="#EEF3EE" fill-opacity="1.00" stroke="None">
<path d="
M 74.00 126.00 
C 57.86 120.55 51.23 149.83 67.26 152.60 C 83.28 155.37 88.37 130.85 74.00 126.00
M 78.00 145.00 
C 74.28 151.00 62.30 148.16 63.01 141.99 C 63.72 135.82 62.79 130.08 70.67 130.33 C 78.55 130.59 78.17 139.72 78.00 145.00 Z"/>
</g>
<g fill="#3F8F4E" fill-opacity="1.00" stroke="None">
<path d="
M 91.00 137.00 
C 97.47 139.91 108.26 133.17 101.23 127.77 C 94.20 122.37 87.77 130.54 91.00 137.00 Z"/>
</g>
<g fill="#333433" fill-opacity="1.00" stroke="None">
<path d="
M 169.00 142.00 
C 173.01 142.45 176.14 142.83 181.00 144.00
C 179.96 143.63 177.81 142.95 177.00 142.00
C 186.88 142.18 197.04 149.82 206.67 146.67 C 216.31 143.53 226.23 142.51 234.00 136.00
C 220.65 132.23 205.53 132.14 193.00 127.00
C 185.76 130.18 177.65 130.36 170.00 132.00 C 162.36 133.64 151.48 132.10 146.00 136.00
C 154.11 135.88 161.23 141.14 169.00 142.00 Z"/>
</g>
<g fill="#4C4C49" fill-opacity="1.00" stroke="None">
<path d="
M 181.00 144.00 
C 192.76 146.82 204.00 150.25 215.67 145.67 C 227.34 141.10 237.19 139.51 248.00 134.00
C 242.88 134.32 238.15 133.20 233.00 133.00
C 220.12 132.51 205.41 125.49 193.00 127.00
C 205.53 132.14 220.65 132.23 234.00 136.00
C 226.23 142.51 216.31 143.53 206.67 146.67 C 197.04 149.82 186.88 142.18 177.00 142.00
C 177.81 142.95 179.96 143.63 181.00 144.00 Z"/>
</g>
<g fill="#41904F" fill-opacity="1.00" stroke="None">
<path d="
M 78.00 145.00 
C 78.17 139.72 78.55 130.59 70.67 130.33 C 62.79 130.08 63.72 135.82 63.01 141.99 C 62.30 148.16 74.28 151.00 78.00 145.00 Z"/>
</g>
<g fill="#0C0D0F" fill-opacity="1.00" stroke="None">
<path d="
M 181.00 144.00 
C 176.14 142.83 173.01 142.45 169.00 142.00
C 172.35 144.34 172.90 149.75 172.00 154.00
C 174.87 154.49 176.05 159.07 178.00 161.00
C 180.05 161.61 182.88 164.61 185.00 165.00
C 186.91 165.00 189.12 164.69 191.00 165.00
C 195.32 163.47 189.32 154.79 193.00 151.00
C 196.49 152.64 197.71 148.60 199.00 153.00
C 206.58 150.07 215.58 151.82 222.00 146.00
C 225.52 144.02 229.15 143.46 233.00 142.00
C 238.42 139.95 244.17 136.83 250.00 135.00
L 250.00 134.00
C 249.50 134.00 248.50 133.97 248.00 134.00
C 237.19 139.51 227.34 141.10 215.67 145.67 C 204.00 150.25 192.76 146.82 181.00 144.00 Z"/>
</g>
<g fill="#54240A" fill-opacity="1.00" stroke="None">
<path d="
M 233.00 142.00 
C 231.98 144.18 234.06 147.85 233.00 150.00
C 237.26 147.55 241.70 146.30 241.99 152.01 C 242.28 157.72 230.87 155.40 233.00 161.00
C 233.50 160.99 234.50 161.00 235.00 161.00
C 236.66 161.00 238.34 160.94 240.00 161.00
C 241.66 161.06 243.34 160.95 245.00 161.00
C 243.30 163.48 239.77 162.99 237.00 163.00
C 236.00 162.97 235.00 163.00 234.00 163.00
C 233.50 163.00 233.00 163.00 233.00 163.00
C 232.97 163.02 233.65 163.87 234.00 164.00
C 235.70 164.63 237.12 165.63 237.00 168.00
C 235.40 167.44 232.97 167.50 232.00 166.00
C 230.64 165.67 228.98 165.27 228.00 165.00
C 227.11 164.75 224.88 164.03 224.00 164.00
C 221.00 163.89 213.00 167.52 210.00 169.00
C 208.19 169.90 207.35 171.35 205.00 172.00
C 202.16 172.79 201.01 172.81 198.31 171.69 C 195.60 170.58 196.53 166.91 195.00 166.00
C 194.84 165.90 191.00 165.00 191.00 165.00
C 189.12 164.69 186.91 165.00 185.00 165.00
C 183.18 165.00 178.54 165.87 177.00 165.00
C 182.04 172.80 192.42 170.44 199.00 175.00
L 250.00 175.00
L 250.00 135.00
C 244.17 136.83 238.42 139.95 233.00 142.00 Z"/>
</g>
<g fill="#3C8A49" fill-opacity="1.00" stroke="None">
<path d="
M 222.00 146.00 
C 224.19 147.64 222.72 151.32 222.00 153.00
C 222.00 153.50 222.22 154.63 222.00 155.00
C 223.13 154.62 225.02 154.46 226.00 154.00
C 226.26 153.88 226.67 153.17 227.00 153.00
C 229.01 151.96 231.05 151.12 233.00 150.00
C 234.06 147.85 231.98 144.18 233.00 142.00
C 229.15 143.46 225.52 144.02 222.00 146.00 Z"/>
</g>
<g fill="#242728" fill-opacity="1.00" stroke="None">
<path d="
M 191.00 165.00 
C 191.00 165.00 194.84 165.90 195.00 166.00
C 198.82 164.77 194.92 161.82 201.07 161.07 C 207.23 160.33 213.66 156.33 220.00 156.00
C 220.37 155.88 221.35 155.22 222.00 155.00
C 222.22 154.63 222.00 153.50 222.00 153.00
C 222.00 150.67 222.00 148.33 222.00 146.00
C 215.58 151.82 206.58 150.07 199.00 153.00
C 197.71 148.60 196.49 152.64 193.00 151.00
C 189.32 154.79 195.32 163.47 191.00 165.00 Z"/>
</g>
<g fill="#33653F" fill-opacity="1.00" stroke="None">
<path d="
M 222.00 153.00 
C 222.72 151.32 224.19 147.64 222.00 146.00
C 222.00 148.33 222.00 150.67 222.00 153.00 Z"/>
</g>
<g fill="#D8DAD8" fill-opacity="1.00" stroke="None">
<path d="
M 233.00 150.00 
C 231.05 151.12 229.01 151.96 227.00 153.00
C 227.42 153.06 228.77 155.61 229.00 156.00
C 229.59 157.02 229.53 157.79 230.00 159.00
C 230.71 160.83 230.59 161.06 233.00 161.00
C 230.87 155.40 242.28 157.72 241.99 152.01 C 241.70 146.30 237.26 147.55 233.00 150.00 Z"/>
</g>
<g fill="#F9A689" fill-opacity="1.00" stroke="None">
<path d="
M 226.00 154.00 
C 225.96 154.62 225.14 155.68 223.00 156.00
C 222.92 156.08 223.88 156.74 224.00 157.00
C 225.25 157.33 228.47 155.72 229.00 156.00
C 228.77 155.61 227.42 153.06 227.00 153.00
C 226.67 153.17 226.26 153.88 226.00 154.00 Z"/>
</g>
<g fill="#9F9F50" fill-opacity="1.00" stroke="None">
<path d="
M 173.00 162.00 
C 173.33 161.00 174.09 161.11 175.00 161.00
C 175.73 160.91 177.30 160.79 178.00 161.00
C 176.05 159.07 174.87 154.49 172.00 154.00
C 172.93 156.62 169.80 157.66 170.00 160.00
C 170.76 160.54 172.43 161.21 173.00 162.00
M 173.00 157.00 
C 173.97 161.12 170.36 158.76 173.00 157.00 Z"/>
</g>
<g fill="#ED5420" fill-opacity="1.00" stroke="None">
<path d="
M 222.00 155.00 
C 221.35 155.22 220.37 155.88 220.00 156.00
C 220.98 155.95 222.03 156.14 223.00 156.00
C 225.14 155.68 225.96 154.62 226.00 154.00
C 225.02 154.46 223.13 154.62 222.00 155.00 Z"/>
</g>
<g fill="#E1E1E1" fill-opacity="1.00" stroke="None">
<path d="
M 195.00 166.00 
C 196.53 166.91 195.60 170.58 198.31 171.69 C 201.01 172.81 202.16 172.79 205.00 172.00
C 207.92 170.21 207.72 165.13 212.07 165.07 C 216.42 165.02 218.49 160.33 223.00 161.00
C 220.03 164.85 210.30 164.87 210.00 169.00
C 213.00 167.52 221.00 163.89 224.00 164.00
C 222.92 163.01 223.84 163.43 224.00 162.00
C 224.12 160.89 224.45 158.00 224.00 157.00
C 223.88 156.74 222.92 156.08 223.00 156.00
C 222.03 156.14 220.98 155.95 220.00 156.00
C 213.66 156.33 207.23 160.33 201.07 161.07 C 194.92 161.82 198.82 164.77 195.00 166.00 Z"/>
</g>
<g fill="#F85530" fill-opacity="1.00" stroke="None">
<path d="
M 224.00 157.00 
C 224.45 158.00 224.12 160.89 224.00 162.00
C 224.82 160.86 228.57 158.59 230.00 159.00
C 229.53 157.79 229.59 157.02 229.00 156.00
C 228.47 155.72 225.25 157.33 224.00 157.00 Z"/>
</g>
<g fill="#4B6440" fill-opacity="1.00" stroke="None">
<path d="
M 173.00 157.00 
C 170.36 158.76 173.97 161.12 173.00 157.00 Z"/>
</g>
<g fill="#C82A17" fill-opacity="1.00" stroke="None">
<path d="
M 224.00 162.00 
C 223.84 163.43 222.92 163.01 224.00 164.00
C 224.88 164.03 227.11 164.75 228.00 165.00
C 230.92 164.75 230.69 161.34 233.00 163.00
C 233.00 163.00 233.50 163.00 234.00 163.00
C 234.45 162.78 234.69 161.18 235.00 161.00
C 234.50 161.00 233.50 160.99 233.00 161.00
C 230.59 161.06 230.71 160.83 230.00 159.00
C 228.57 158.59 224.82 160.86 224.00 162.00 Z"/>
</g>
<g fill="#33322F" fill-opacity="1.00" stroke="None">
<path d="
M 173.00 162.00 
C 173.65 162.91 173.58 164.12 174.00 165.00
C 177.32 172.00 186.69 171.55 192.00 175.00
L 199.00 175.00
C 192.42 170.44 182.04 172.80 177.00 165.00
C 176.59 164.37 175.62 161.18 175.00 161.00
C 174.09 161.11 173.33 161.00 173.00 162.00 Z"/>
</g>
<g fill="#3D8849" fill-opacity="1.00" stroke="None">
<path d="
M 177.00 165.00 
C 178.54 165.87 183.18 165.00 185.00 165.00
C 182.88 164.61 180.05 161.61 178.00 161.00
C 177.30 160.79 175.73 160.91 175.00 161.00
C 175.62 161.18 176.59 164.37 177.00 165.00 Z"/>
</g>
<g fill="#B3B3B5" fill-opacity="1.00" stroke="None">
<path d="
M 205.00 172.00 
C 207.35 171.35 208.19 169.90 210.00 169.00
C 210.30 164.87 220.03 164.85 223.00 161.00
C 218.49 160.33 216.42 165.02 212.07 165.07 C 207.72 165.13 207.92 170.21 205.00 172.00 Z"/>
</g>
<g fill="#F09878" fill-opacity="1.00" stroke="None">
<path d="
M 234.00 163.00 
C 235.00 163.00 236.00 162.97 237.00 163.00
C 237.59 162.88 239.46 161.13 240.00 161.00
C 238.34 160.94 236.66 161.00 235.00 161.00
C 234.69 161.18 234.45 162.78 234.00 163.00 Z"/>
</g>
<g fill="#EC5129" fill-opacity="1.00" stroke="None">
<path d="
M 237.00 163.00 
C 239.77 162.99 243.30 163.48 245.00 161.00
C 243.34 160.95 241.66 161.06 240.00 161.00
C 239.46 161.13 237.59 162.88 237.00 163.00 Z"/>
</g>
<g fill="#CE956F" fill-opacity="1.00" stroke="None">
<path d="
M 228.00 165.00 
C 228.98 165.27 230.64 165.67 232.00 166.00
C 232.17 165.95 234.13 164.50 234.00 164.00
C 233.65 163.87 232.97 163.02 233.00 163.00
C 230.69 161.34 230.92 164.75 228.00 165.00 Z"/>
</g>
<g fill="#DE5123" fill-opacity="1.00" stroke="None">
<path d="
M 232.00 166.00 
C 232.97 167.50 235.40 167.44 237.00 168.00
C 237.12 165.63 235.70 164.63 234.00 164.00
C 234.13 164.50 232.17 165.95 232.00 166.00 Z"/>
</g>
</svg>